if (_typeface_js && _typeface_js.loadFace) _typeface_js.loadFace({"glyphs":{"S":{"x_min":29,"x_max":641.546875,"ha":671,"o":"m 641 959 l 544 898 q 363 957 440 957 q 244 896 294 957 q 194 765 194 836 q 303 597 194 656 q 505 505 403 551 q 615 324 615 441 q 473 85 615 194 q 206 -17 340 -17 q 29 35 117 -17 l 138 120 q 293 66 205 66 q 482 246 482 66 q 367 416 482 356 q 158 512 263 463 q 44 709 44 580 q 182 930 44 829 q 435 1024 310 1024 q 641 959 528 1024 "},"¦":{"x_min":75,"x_max":175,"ha":251,"o":"m 175 667 l 75 667 l 75 1064 l 175 1064 l 175 667 m 175 -8 l 75 -8 l 75 389 l 175 389 l 175 -8 "},"/":{"x_min":-41.5,"x_max":574.328125,"ha":532,"o":"m 574 951 l 96 23 q -41 0 90 12 q 208 464 62 183 q 453 931 444 918 l 574 951 "},"y":{"x_min":14,"x_max":709.890625,"ha":714,"o":"m 709 651 q 526 251 648 535 q 336 -144 414 -8 q 252 -238 297 -210 q 130 -269 204 -269 q 14 -248 66 -269 l 52 -195 q 123 -219 100 -219 q 237 -102 175 -219 q 314 61 276 -20 q 39 656 161 374 l 164 683 q 375 187 233 476 q 584 683 445 352 l 709 651 "},"≈":{"x_min":48,"x_max":768.890625,"ha":817,"o":"m 768 409 q 561 333 656 333 q 414 365 511 333 q 263 398 316 398 q 48 304 181 398 l 48 410 q 270 490 173 490 q 421 457 323 490 q 568 425 520 425 q 768 517 645 425 l 768 409 m 768 244 q 561 168 656 168 q 410 200 510 168 q 256 233 310 233 q 48 139 179 233 l 48 245 q 271 326 177 326 q 422 293 324 326 q 568 260 520 260 q 768 352 646 260 l 768 244 "},"Ž":{"x_min":-27.21875,"x_max":873.1875,"ha":846,"o":"m 700 1237 q 453 1041 589 1161 q 374 1138 425 1083 q 288 1232 331 1186 l 360 1288 l 467 1165 l 663 1293 l 700 1237 m 873 1007 l 198 83 q 427 75 314 75 l 519 75 q 863 113 759 75 l 870 97 l 712 0 l -11 0 l -27 8 l 645 911 q 443 905 504 905 q 63 932 313 906 l 63 944 l 168 1022 q 548 981 288 981 q 857 1014 734 981 l 873 1007 "},"Á":{"x_min":-26,"x_max":1160.203125,"ha":1133,"o":"m 787 1226 l 580 1045 l 535 1097 q 718 1306 651 1219 l 787 1226 m 1160 18 q 1014 -8 1069 15 l 767 493 q 603 474 724 474 q 558 474 594 474 q 499 474 522 474 q 367 439 387 474 l 108 0 l -26 0 q 285 494 49 144 q 576 998 493 801 q 699 1007 650 998 q 832 670 732 859 q 1015 348 924 509 q 1160 18 1121 157 m 754 534 l 610 852 q 428 532 428 577 q 524 514 428 514 q 754 534 686 514 "},"g":{"x_min":18.671875,"x_max":613.15625,"ha":640,"o":"m 613 657 l 489 622 q 575 427 575 540 q 470 200 575 275 q 273 126 413 160 q 167 65 167 100 q 214 17 167 17 q 334 45 255 17 q 450 74 413 74 q 546 22 504 74 q 583 -80 583 -24 q 465 -241 583 -184 q 256 -286 374 -286 q 18 -165 89 -286 l 150 -119 q 221 -210 185 -184 q 330 -244 262 -244 q 427 -210 389 -244 q 466 -119 466 -177 q 420 -32 466 -63 q 323 -8 382 -8 q 230 -25 290 -8 q 138 -43 170 -43 q 87 -22 107 -43 q 67 29 67 -1 q 110 105 67 70 q 192 145 146 134 l 192 148 q 77 243 121 172 q 35 387 35 309 q 124 586 35 491 q 318 682 213 682 l 613 673 l 613 657 m 458 379 q 401 532 458 467 q 257 597 345 597 q 173 562 196 597 q 152 466 152 533 q 205 286 152 362 q 360 184 262 205 q 432 268 406 214 q 458 379 458 322 "},"²":{"x_min":9,"x_max":403.484375,"ha":413,"o":"m 403 363 q 209 372 221 372 q 111 367 175 372 q 15 363 46 363 l 9 376 q 113 498 29 411 q 232 629 207 597 l 228 633 q 172 620 202 620 q 76 669 111 620 q 45 777 45 715 q 93 887 45 845 q 211 929 142 929 q 332 894 282 929 q 391 786 391 854 q 302 590 391 710 q 159 421 281 563 q 238 419 197 419 q 403 433 327 419 l 403 363 m 308 786 q 224 878 308 878 q 137 767 137 878 q 205 663 137 663 q 278 704 246 663 q 308 786 308 742 "},"–":{"x_min":38,"x_max":732.5,"ha":771,"o":"m 732 282 l 38 282 l 38 383 l 732 383 l 732 282 "},"ë":{"x_min":-6,"x_max":509.3125,"ha":560,"o":"m 463 929 q 434 840 452 868 q 355 828 425 828 l 255 828 l 294 929 q 374 929 348 929 q 463 929 399 929 m 217 929 l 173 828 l 9 828 q 37 876 31 867 q 57 929 52 906 q 130 929 100 929 q 217 929 153 929 m 509 469 q 128 304 356 397 q 192 159 141 223 q 327 85 252 85 q 466 155 381 85 l 489 136 q 274 -8 355 -8 q 59 122 137 -8 q -6 377 -6 232 q 77 577 -6 479 q 263 682 164 682 q 421 615 339 682 q 509 469 507 544 m 367 468 q 307 558 367 511 q 203 606 248 606 q 138 521 163 606 q 119 405 119 455 q 121 347 119 384 q 250 398 185 373 q 367 468 367 448 "},"ƒ":{"x_min":-57,"x_max":741.671875,"ha":685,"o":"m 741 966 l 663 883 q 579 948 600 948 q 484 774 530 948 q 440 566 479 753 q 634 575 523 566 l 590 494 q 423 494 506 489 l 319 -11 q 223 -188 297 -115 q 41 -269 144 -269 q -57 -224 -9 -269 l 20 -140 q 104 -201 77 -201 q 174 -87 136 -201 q 213 55 198 -16 l 302 494 l 226 494 q 127 479 188 494 l 120 486 q 166 568 141 504 q 316 566 245 570 q 399 855 363 781 q 630 1015 477 1015 q 741 966 669 1015 "},"Î":{"x_min":-47,"x_max":365.53125,"ha":317,"o":"m 365 1114 l 293 1055 l 186 1180 l -9 1051 l -47 1108 q 200 1306 55 1179 q 279 1207 228 1262 q 365 1114 322 1161 m 258 1015 q 240 647 255 937 q 229 277 229 419 q 240 8 229 132 l 82 -8 q 91 495 82 162 q 104 998 102 835 l 258 1015 "},"e":{"x_min":22,"x_max":537.328125,"ha":560,"o":"m 537 469 q 156 304 384 397 q 222 159 170 223 q 355 85 280 85 q 494 155 410 85 l 517 136 q 302 -8 384 -8 q 87 122 166 -8 q 22 377 22 232 q 105 577 22 479 q 291 682 192 682 q 449 615 367 682 q 537 469 535 544 m 395 468 q 336 558 395 511 q 231 606 277 606 q 166 521 192 606 q 147 405 147 455 q 149 347 147 384 q 280 398 215 373 q 395 468 395 448 "},"Ã":{"x_min":-26,"x_max":1160.203125,"ha":1133,"o":"m 869 1219 q 818 1134 844 1176 q 743 1082 783 1082 q 645 1116 726 1082 q 540 1150 564 1150 q 465 1091 494 1150 l 411 1120 q 462 1203 414 1122 q 539 1258 494 1258 q 655 1224 575 1258 q 751 1190 735 1190 q 819 1245 787 1190 l 869 1219 m 1160 18 q 1014 -8 1069 15 l 767 493 q 603 474 724 474 q 558 474 594 474 q 499 474 522 474 q 367 439 387 474 l 108 0 l -26 0 q 285 494 49 144 q 576 998 493 801 q 699 1007 650 998 q 832 670 732 859 q 1015 348 924 509 q 1160 18 1121 157 m 754 534 l 610 852 q 428 532 428 577 q 524 514 428 514 q 754 534 686 514 "},"J":{"x_min":0.6875,"x_max":416,"ha":435,"o":"m 416 1015 q 399 658 399 866 q 402 430 399 581 q 405 207 405 279 q 303 -21 405 90 q 85 -133 202 -133 l 0 -98 l 6 -78 q 187 -35 139 -66 q 255 126 255 7 q 259 566 255 287 q 264 1006 263 881 l 416 1015 "},"»":{"x_min":-7.640625,"x_max":493.421875,"ha":485,"o":"m 493 358 q 218 36 398 254 l 153 87 q 272 219 205 135 q 383 357 327 288 l 127 584 l 192 628 l 493 358 m 281 357 l 65 96 l 7 150 l 176 358 l -7 511 l 55 554 l 281 357 "},"∆":{"x_min":-1,"x_max":796.28125,"ha":793,"o":"m 796 0 l -1 0 l 382 933 l 412 933 l 796 0 m 615 63 l 357 699 l 97 63 l 615 63 "},"‐":{"x_min":34.71875,"x_max":737.5625,"ha":772,"o":"m 737 301 l 34 301 l 34 401 l 737 401 l 737 301 "},"©":{"x_min":21,"x_max":1035,"ha":1054,"o":"m 1035 504 q 886 142 1035 293 q 528 -8 737 -8 q 168 142 316 -8 q 21 504 21 293 q 168 865 21 715 q 528 1015 316 1015 q 886 865 737 1015 q 1035 504 1035 715 m 935 504 q 815 802 935 673 q 528 932 696 932 q 240 802 359 932 q 121 504 121 673 q 239 206 121 335 q 528 77 358 77 q 815 206 696 77 q 935 504 935 335 m 780 406 q 693 248 761 308 q 529 188 625 188 q 315 278 396 188 q 234 503 234 368 q 313 726 234 639 q 528 814 393 814 q 696 756 626 814 q 779 602 765 699 l 689 602 q 631 694 676 660 q 526 729 586 729 q 381 661 433 729 q 334 504 334 598 q 383 346 334 412 q 529 273 440 273 q 635 309 590 273 q 689 406 679 346 l 780 406 "},"˘":{"x_min":-11,"x_max":425.140625,"ha":413,"o":"m 425 929 q 334 808 384 845 q 191 767 279 767 q -11 930 50 767 l 44 961 q 212 859 108 859 q 302 889 262 859 q 368 961 327 908 l 425 929 "},"≥":{"x_min":30,"x_max":673.109375,"ha":703,"o":"m 673 344 l 30 143 l 30 240 l 507 389 l 30 538 l 30 636 l 673 434 l 673 344 m 673 25 l 30 25 l 30 119 l 673 119 l 673 25 "},"ò":{"x_min":34,"x_max":608,"ha":643,"o":"m 410 798 l 364 747 l 157 927 l 227 1007 q 410 798 293 920 m 608 369 q 517 116 608 232 q 284 -8 420 -8 q 100 107 175 -8 q 34 322 34 209 q 133 575 34 469 q 380 682 232 682 q 556 577 495 682 q 608 369 608 491 m 475 312 q 444 502 475 425 q 303 614 399 614 q 194 505 232 614 q 167 341 167 426 q 217 165 167 250 q 363 67 275 67 q 413 110 380 67 q 452 169 442 147 q 475 312 475 219 "},"^":{"x_min":44,"x_max":728.75,"ha":772,"o":"m 728 333 l 621 333 l 384 816 l 150 333 l 44 333 l 337 929 l 434 929 l 728 333 "},"«":{"x_min":-12,"x_max":489.0625,"ha":478,"o":"m 489 511 l 304 358 l 474 150 l 416 97 l 200 358 l 425 554 l 489 511 m 352 585 l 97 358 q 210 219 154 288 q 328 87 276 136 l 263 36 q 128 198 213 102 q -12 358 1 343 l 289 628 l 352 585 "},"D":{"x_min":3,"x_max":918,"ha":921,"o":"m 918 627 q 623 121 918 284 q 15 -8 390 -8 l 15 33 l 95 33 q 101 206 101 106 l 101 775 q 97 951 101 791 q 3 951 51 962 l 3 997 q 222 1007 127 1007 q 655 936 469 1007 q 918 627 918 837 m 760 563 q 590 851 760 741 q 255 948 442 948 l 231 50 q 596 205 437 58 q 760 563 760 358 "},"∙":{"x_min":61,"x_max":244,"ha":306,"o":"m 244 387 q 216 321 244 349 q 152 294 189 294 q 88 321 115 294 q 61 387 61 349 q 88 451 61 424 q 152 479 115 479 q 216 451 189 479 q 244 387 244 424 "},"ł":{"x_min":13.71875,"x_max":398.75,"ha":411,"o":"m 398 604 l 233 504 l 233 170 q 273 95 233 95 q 339 119 295 95 l 343 87 q 156 -17 244 38 q 104 194 104 41 q 110 325 104 245 q 119 436 117 421 l 13 374 q 18 422 18 399 q 14 469 18 445 l 127 536 q 133 812 133 733 q 134 856 133 829 q 135 894 135 883 q 118 953 135 935 q 52 972 101 972 l 52 997 l 262 1031 q 241 605 246 772 l 398 700 q 395 653 395 676 q 398 604 395 629 "},"ÿ":{"x_min":-24,"x_max":671.890625,"ha":714,"o":"m 556 929 q 527 840 545 868 q 448 828 519 828 l 348 828 l 387 929 q 467 929 442 929 q 556 929 492 929 m 310 929 l 266 828 l 102 828 q 131 876 126 867 q 151 929 145 906 q 223 929 195 929 q 310 929 246 929 m 671 651 q 488 251 610 535 q 298 -144 376 -8 q 214 -238 259 -210 q 92 -269 166 -269 q -24 -248 28 -269 l 14 -195 q 85 -219 62 -219 q 199 -102 137 -219 q 276 61 238 -20 q 1 656 123 374 l 126 683 q 337 187 194 476 q 546 683 407 352 l 671 651 "},"Ł":{"x_min":-32.84375,"x_max":750.40625,"ha":717,"o":"m 750 127 q 689 -8 707 48 q 467 3 592 3 q 268 -1 392 3 q 72 -8 119 -6 q 100 437 99 223 l -32 373 q -31 469 -23 423 l 106 536 q 93 1005 106 768 l 271 1031 l 256 609 l 458 707 q 452 654 452 684 q 458 607 452 638 l 256 510 l 243 67 l 376 67 q 739 136 626 67 l 750 127 "},"í":{"x_min":41,"x_max":318.796875,"ha":361,"o":"m 318 927 l 111 747 l 66 798 q 249 1007 182 920 l 318 927 m 312 30 q 122 -8 151 -8 q 99 36 99 -8 q 107 312 99 128 q 115 588 115 497 q 88 620 115 615 q 41 622 81 622 l 52 662 q 250 682 118 666 q 238 391 249 651 q 230 100 230 213 q 246 56 230 56 q 312 68 256 56 l 312 30 "},"ˆ":{"x_min":3,"x_max":415.53125,"ha":417,"o":"m 415 815 l 343 757 l 236 882 l 40 753 l 3 809 q 250 1007 105 880 q 329 908 278 963 q 415 815 372 862 "},"w":{"x_min":14,"x_max":1127.984375,"ha":1143,"o":"m 1127 631 q 953 323 1047 512 q 832 2 839 96 q 715 -17 768 2 q 642 227 693 87 q 553 468 597 348 l 550 468 q 452 239 540 440 q 380 8 386 91 l 263 -8 q 14 652 256 134 q 166 690 102 666 q 247 433 191 592 q 332 176 311 244 l 333 176 q 433 393 383 284 q 504 612 502 551 q 637 637 565 612 q 705 408 640 569 q 794 166 782 220 l 797 166 q 905 427 827 275 q 1032 682 1021 657 q 1127 631 1071 654 "},"$":{"x_min":8,"x_max":640,"ha":649,"o":"m 640 958 l 546 894 q 387 948 473 948 l 387 561 q 552 476 505 515 q 629 316 629 414 q 552 122 629 205 q 371 11 484 48 l 371 -156 q 262 -215 305 -165 l 252 -208 q 301 -8 278 -138 q 230 -17 255 -17 q 8 58 139 -17 q 134 144 64 86 q 308 66 218 66 q 320 240 320 169 l 320 437 q 131 527 167 501 q 48 709 48 591 q 134 890 48 811 q 316 990 205 955 q 323 1140 316 1100 q 426 1189 371 1157 q 394 1007 399 1098 q 467 1015 420 1015 q 640 958 544 1015 m 320 580 l 320 940 q 230 870 263 922 q 198 758 198 819 q 320 580 198 637 m 496 236 q 382 416 496 372 l 376 76 q 496 236 496 76 "},"∫":{"x_min":-87,"x_max":543.59375,"ha":456,"o":"m 543 957 q 524 909 543 928 q 475 891 504 891 q 413 935 440 891 q 374 980 385 980 q 295 549 306 980 q 286 258 286 261 q 222 -85 272 37 q 25 -251 156 -251 q -50 -227 -18 -251 q -87 -158 -87 -201 q -18 -93 -87 -93 q 44 -136 15 -93 q 83 -180 72 -180 q 163 269 147 -180 q 169 555 167 412 q 233 890 183 770 q 431 1051 300 1051 q 509 1025 475 1051 q 543 957 543 1000 "},"\\":{"x_min":-38.984375,"x_max":576.046875,"ha":536,"o":"m 576 23 l 458 0 l -38 932 l 64 951 q 576 23 331 422 "},"Ì":{"x_min":50,"x_max":302.796875,"ha":354,"o":"m 302 1097 l 257 1045 l 50 1226 l 119 1306 q 302 1097 187 1219 m 302 1015 q 286 647 301 937 q 275 277 275 419 q 284 8 275 132 l 126 -8 q 137 495 126 162 q 148 998 148 835 l 302 1015 "},"µ":{"x_min":21,"x_max":619.671875,"ha":640,"o":"m 619 676 q 605 338 609 539 q 597 0 601 169 l 469 0 l 475 113 l 469 113 q 348 -8 426 44 q 205 33 270 -6 q 222 -280 205 -173 q 82 -286 175 -281 q 97 169 96 -99 q 99 626 97 398 q 21 627 58 632 l 48 676 q 230 676 141 670 q 210 292 210 469 q 257 161 210 216 q 381 101 307 101 q 486 453 486 101 q 479 676 486 481 q 619 676 553 671 "},"Ç":{"x_min":-19,"x_max":890.796875,"ha":872,"o":"m 890 915 l 803 827 q 675 910 753 876 q 528 948 593 948 q 239 809 354 948 q 131 499 131 677 q 228 196 131 309 q 517 76 331 76 q 854 204 715 76 l 878 172 q 476 -14 699 5 l 460 -51 q 531 -78 500 -52 q 563 -144 563 -105 q 524 -224 563 -194 q 432 -254 485 -254 q 272 -192 353 -254 q 317 -147 289 -179 q 411 -203 362 -203 q 447 -191 431 -203 q 463 -159 463 -179 q 353 -116 463 -116 q 419 -17 397 -80 l 406 -17 q 87 121 203 -18 q -19 463 -19 252 q 18 691 -19 588 q 156 871 64 816 q 393 960 214 906 q 635 1015 572 1015 q 890 915 781 1015 "},"’":{"x_min":26,"x_max":226.015625,"ha":253,"o":"m 226 1007 q 126 750 155 873 q 26 732 80 750 l 131 998 q 226 1007 180 998 "},"-":{"x_min":34.71875,"x_max":737.5625,"ha":772,"o":"m 737 301 l 34 301 l 34 401 l 737 401 l 737 301 "},"Q":{"x_min":26,"x_max":1148.3125,"ha":1174,"o":"m 1148 53 l 1049 -31 q 862 90 978 -1 q 680 12 794 42 q 482 -17 573 -17 q 149 145 281 -17 q 26 505 26 298 q 252 894 26 752 q 710 1015 445 1015 q 1015 852 892 1015 q 1125 516 1125 705 q 1088 324 1125 403 q 963 167 1051 245 q 1148 53 1049 106 m 983 420 q 876 761 983 608 q 573 932 755 932 q 286 798 395 932 q 184 491 184 673 q 317 197 184 328 q 613 66 450 66 q 806 127 728 66 q 637 224 731 181 l 751 309 q 909 211 845 259 q 983 420 983 293 "},"M":{"x_min":35,"x_max":1359,"ha":1395,"o":"m 1359 8 l 1219 0 l 1163 779 l 1160 779 q 952 399 1084 613 q 720 33 836 216 l 633 37 q 244 782 501 284 l 242 782 q 171 -8 229 562 l 35 8 q 150 990 78 334 l 278 1015 q 721 197 444 660 q 970 590 888 448 q 1174 1007 1103 819 l 1229 1003 l 1286 1007 l 1359 8 "},"C":{"x_min":-19,"x_max":890.796875,"ha":872,"o":"m 890 915 l 803 827 q 675 910 753 876 q 528 948 593 948 q 239 809 354 948 q 131 499 131 677 q 228 196 131 309 q 517 76 331 76 q 854 204 715 76 l 878 172 q 406 -17 675 -17 q 87 123 203 -17 q -19 463 -19 253 q 18 691 -19 588 q 156 871 64 816 q 393 960 214 906 q 635 1015 572 1015 q 890 915 781 1015 "},"œ":{"x_min":7,"x_max":994.59375,"ha":1003,"o":"m 994 469 q 614 304 843 397 q 677 158 627 221 q 812 85 736 85 q 951 155 869 85 l 975 136 q 752 -8 841 -8 q 622 38 686 -8 q 527 147 558 84 q 424 39 501 87 q 279 -8 347 -8 q 79 98 157 -8 q 7 322 7 196 q 107 575 7 469 q 352 682 207 682 q 466 660 426 682 q 554 579 507 638 q 741 682 679 682 q 902 618 829 682 q 994 469 970 557 m 852 468 q 793 558 852 511 q 688 606 734 606 q 624 521 649 606 q 604 405 604 455 q 606 347 604 384 q 737 398 672 373 q 852 468 852 448 m 471 328 q 433 512 471 434 q 286 614 383 614 q 169 515 206 614 q 140 351 140 444 q 194 168 140 255 q 345 67 255 67 q 443 172 407 67 q 471 328 471 253 "},"!":{"x_min":110,"x_max":282.234375,"ha":392,"o":"m 282 990 q 241 236 247 747 l 134 211 q 148 692 148 617 q 134 958 148 855 l 282 990 m 235 140 l 224 18 l 110 -8 l 115 116 l 235 140 "},"ç":{"x_min":12,"x_max":500.921875,"ha":514,"o":"m 500 563 l 402 513 q 324 575 370 548 q 231 606 271 606 q 163 528 186 606 q 145 414 145 471 q 197 207 145 311 q 354 85 261 85 q 480 133 410 85 l 480 86 q 373 23 437 51 q 253 -8 300 -8 l 252 -8 l 234 -51 q 305 -78 274 -52 q 337 -144 337 -105 q 295 -226 337 -194 q 206 -254 259 -254 q 46 -192 127 -254 q 91 -147 63 -179 q 185 -203 137 -203 q 221 -191 205 -203 q 237 -159 237 -179 q 127 -116 237 -116 q 199 4 178 -73 q 62 179 120 42 q 12 383 12 295 q 35 498 12 434 q 96 598 60 569 q 198 650 123 619 q 303 682 274 682 q 500 563 396 682 "},"È":{"x_min":8,"x_max":601.109375,"ha":628,"o":"m 373 1097 l 327 1045 l 120 1226 l 189 1306 q 373 1097 256 1219 m 601 91 l 503 -8 q 298 4 388 4 q 8 -8 183 4 q 51 596 51 311 q 49 802 51 766 q 23 1007 44 922 q 296 990 246 990 q 562 1015 438 990 l 569 985 l 485 925 q 334 932 421 932 q 205 927 317 932 l 197 559 l 402 559 q 591 583 516 559 l 596 569 l 508 465 q 384 474 463 474 l 189 474 q 169 67 185 337 l 359 67 q 588 111 528 67 l 601 91 "},"{":{"x_min":9,"x_max":356.25,"ha":365,"o":"m 356 -129 l 265 -129 q 131 6 154 -129 q 117 259 124 133 q 9 401 103 396 l 9 484 q 117 625 103 488 q 131 878 124 752 q 265 1015 154 1015 l 356 1015 l 356 932 l 286 932 q 224 818 229 932 q 217 594 220 705 q 109 444 197 466 l 109 441 q 207 335 182 422 q 224 160 224 279 l 224 132 q 232 7 224 42 q 286 -44 246 -44 l 356 -44 l 356 -129 "},"X":{"x_min":12,"x_max":1060.703125,"ha":1074,"o":"m 1060 49 q 917 -17 970 23 q 517 400 794 134 q 325 222 421 311 q 159 16 199 96 q 28 -17 109 10 q 223 238 38 64 q 462 448 342 344 q 225 688 225 687 q 12 948 93 828 q 149 1015 82 970 q 346 773 218 906 q 568 554 457 663 q 767 764 728 719 q 914 1001 896 914 q 1049 1024 974 1005 q 857 751 1030 942 q 620 505 823 712 q 855 285 737 395 q 1060 49 1005 144 "},"ô":{"x_min":34,"x_max":608,"ha":643,"o":"m 517 815 l 445 757 l 338 882 l 142 752 l 104 809 q 352 1007 209 880 q 431 908 379 963 q 517 815 474 862 m 608 369 q 517 116 608 232 q 284 -8 420 -8 q 100 107 175 -8 q 34 322 34 209 q 133 575 34 469 q 380 682 232 682 q 556 577 495 682 q 608 369 608 491 m 475 312 q 444 502 475 425 q 303 614 399 614 q 194 505 232 614 q 167 341 167 426 q 217 165 167 250 q 363 67 275 67 q 413 110 380 67 q 452 169 442 147 q 475 312 475 219 "},"¼":{"x_min":31,"x_max":993.578125,"ha":1025,"o":"m 993 108 l 946 108 l 946 12 l 849 -8 l 849 108 l 614 108 l 844 513 l 946 537 l 946 166 l 993 166 l 993 108 m 893 976 l 287 -39 l 199 -39 l 805 976 l 893 976 m 306 922 q 290 562 290 698 q 295 386 290 468 q 189 362 226 375 q 200 563 200 520 l 200 809 q 31 736 114 761 l 47 808 q 276 929 176 833 l 306 922 m 854 166 l 854 437 l 854 437 l 701 166 l 854 166 "},"#":{"x_min":31,"x_max":658.828125,"ha":690,"o":"m 658 535 l 518 535 l 494 360 l 622 360 l 622 275 l 482 275 l 443 0 l 359 0 l 399 275 l 242 275 l 203 0 l 119 0 l 158 275 l 31 275 l 31 360 l 170 360 l 194 535 l 67 535 l 67 618 l 207 618 l 246 893 l 330 893 l 291 618 l 447 618 l 486 893 l 569 893 l 531 618 l 658 618 l 658 535 m 434 535 l 278 535 l 254 360 l 410 360 l 434 535 "},"Ê":{"x_min":8,"x_max":601.109375,"ha":628,"o":"m 480 1114 l 408 1055 l 301 1180 l 105 1051 l 67 1108 q 314 1306 170 1179 q 394 1207 342 1262 q 480 1114 437 1161 m 601 91 l 503 -8 q 298 4 388 4 q 8 -8 183 4 q 51 596 51 311 q 49 802 51 766 q 23 1007 44 922 q 296 990 246 990 q 562 1015 438 990 l 569 985 l 485 925 q 334 932 421 932 q 205 927 317 932 l 197 559 l 402 559 q 591 583 516 559 l 596 569 l 508 465 q 384 474 463 474 l 189 474 q 169 67 185 337 l 359 67 q 588 111 528 67 l 601 91 "},")":{"x_min":72,"x_max":326,"ha":399,"o":"m 326 472 q 171 -129 326 126 l 72 -77 q 234 497 234 205 q 131 951 234 742 l 184 1015 q 326 472 326 808 "},"Å":{"x_min":-26,"x_max":1160.203125,"ha":1133,"o":"m 809 1190 q 754 1093 809 1127 q 641 1064 707 1064 q 527 1091 571 1064 q 473 1190 473 1125 q 525 1293 473 1258 q 641 1324 570 1324 q 809 1190 809 1324 m 1160 18 q 1014 -8 1069 15 l 767 493 q 603 474 724 474 q 558 474 594 474 q 499 474 522 474 q 367 439 387 474 l 108 0 l -26 0 q 285 494 49 144 q 576 998 493 801 q 699 1007 650 998 q 832 670 732 859 q 1015 348 924 509 q 1160 18 1121 157 m 726 1196 q 641 1282 726 1282 q 556 1190 556 1282 q 579 1128 556 1151 q 641 1106 603 1106 q 726 1196 726 1106 m 754 534 l 610 852 q 428 532 428 577 q 524 514 428 514 q 754 534 686 514 "},"Δ":{"x_min":-1,"x_max":796.28125,"ha":793,"o":"m 796 0 l -1 0 l 382 933 l 412 933 l 796 0 m 615 63 l 357 699 l 97 63 l 615 63 "},"ø":{"x_min":19,"x_max":619,"ha":639,"o":"m 619 376 q 531 119 619 236 q 298 -8 435 -8 q 200 11 232 -8 l 138 -119 q 92 -112 113 -112 q 37 -124 71 -112 q 148 39 99 -58 q 19 320 19 128 q 122 577 19 473 q 378 682 225 682 q 467 662 428 682 l 521 772 l 619 772 q 521 627 566 706 q 619 376 619 552 m 421 567 q 313 622 364 622 q 182 517 232 622 q 144 344 144 433 q 206 151 144 224 l 421 567 m 494 332 q 455 512 494 451 q 346 312 374 365 q 249 107 288 198 q 350 67 305 67 q 462 171 421 67 q 494 332 494 250 "},"â":{"x_min":37,"x_max":598,"ha":636,"o":"m 524 815 l 452 757 l 345 882 l 149 752 l 112 809 q 359 1007 216 880 q 438 908 387 963 q 524 815 481 862 m 598 14 l 557 14 q 404 0 506 15 l 407 108 l 405 108 q 245 -8 320 -8 q 98 55 159 -8 q 37 204 37 118 q 111 362 37 295 q 277 430 185 430 q 404 388 323 430 l 404 480 q 378 591 404 554 q 281 648 352 627 q 228 590 262 640 q 112 577 152 590 q 191 652 135 622 q 298 682 246 682 q 494 619 449 682 q 529 411 529 570 l 529 50 q 598 38 562 47 l 598 14 m 404 219 q 376 332 404 286 q 280 388 342 388 q 188 335 220 388 q 162 226 162 290 q 200 121 162 171 q 295 67 241 67 q 373 123 340 67 q 404 219 404 172 "},"}":{"x_min":19,"x_max":366.25,"ha":386,"o":"m 366 401 q 257 259 273 396 q 244 6 250 133 q 109 -129 221 -129 l 19 -129 l 19 -44 l 88 -44 q 141 3 127 -44 q 152 115 150 36 l 152 176 q 170 341 152 287 q 266 441 195 423 l 266 444 q 159 594 177 466 q 150 818 155 705 q 88 932 145 932 l 19 932 l 19 1015 l 109 1015 q 244 878 221 1015 q 257 625 250 752 q 366 484 273 488 l 366 401 "},"‰":{"x_min":-19,"x_max":1585,"ha":1564,"o":"m 1585 354 q 1530 115 1585 220 q 1346 -17 1465 -17 q 1261 24 1315 -17 q 1194 92 1214 62 q 1149 291 1149 163 q 1386 625 1149 625 q 1541 537 1490 625 q 1585 354 1585 466 m 1071 354 q 1016 115 1071 220 q 832 -17 951 -17 q 747 24 801 -17 q 680 92 700 62 q 635 291 635 163 q 872 625 635 625 q 1027 537 976 625 q 1071 354 1071 466 m 765 938 q 369 -25 589 573 l 275 -25 q 672 938 486 458 l 765 938 m 417 657 q 362 418 417 525 q 178 286 296 286 q 93 327 147 286 q 26 395 46 365 q -19 594 -19 466 q 218 929 -19 929 q 373 841 322 929 q 417 657 417 769 m 1493 294 q 1372 591 1493 529 q 1271 465 1296 529 q 1249 301 1249 409 q 1279 134 1249 216 q 1394 25 1321 26 q 1466 150 1437 55 q 1493 294 1493 230 m 979 294 q 858 591 979 529 q 757 465 782 529 q 735 301 735 409 q 765 134 735 216 q 880 25 807 26 q 952 150 923 55 q 979 294 979 230 m 325 597 q 204 894 325 832 q 101 768 128 832 q 81 604 81 712 q 111 437 81 519 q 226 327 153 329 q 298 452 269 358 q 325 597 325 533 "},"Ä":{"x_min":-26,"x_max":1160.203125,"ha":1133,"o":"m 867 1228 q 837 1139 857 1167 q 758 1127 829 1127 l 658 1127 l 697 1228 q 778 1228 753 1228 q 867 1228 803 1228 m 621 1228 l 576 1127 l 412 1127 q 442 1175 436 1166 q 461 1228 457 1205 q 533 1228 505 1228 q 621 1228 557 1228 m 1160 18 q 1014 -8 1069 15 l 767 493 q 603 474 724 474 q 558 474 594 474 q 499 474 522 474 q 367 439 387 474 l 108 0 l -26 0 q 285 494 49 144 q 576 998 493 801 q 699 1007 650 998 q 832 670 732 859 q 1015 348 924 509 q 1160 18 1121 157 m 754 534 l 610 852 q 428 532 428 577 q 524 514 428 514 q 754 534 686 514 "},"⋲":{"x_min":48,"x_max":768.890625,"ha":817,"o":"m 768 409 q 561 333 656 333 q 414 365 511 333 q 263 398 316 398 q 48 304 181 398 l 48 410 q 270 490 173 490 q 421 457 323 490 q 568 425 520 425 q 768 517 645 425 l 768 409 m 768 244 q 561 168 656 168 q 410 200 510 168 q 256 233 310 233 q 48 139 179 233 l 48 245 q 271 326 177 326 q 422 293 324 326 q 568 260 520 260 q 768 352 646 260 l 768 244 "},"¸":{"x_min":1,"x_max":291,"ha":293,"o":"m 291 -144 q 251 -224 291 -194 q 160 -254 211 -254 q 1 -192 81 -254 q 45 -147 17 -179 q 139 -203 91 -203 q 175 -191 159 -203 q 191 -159 191 -179 q 81 -116 191 -116 q 162 43 146 -62 l 228 43 l 188 -51 q 259 -78 228 -52 q 291 -144 291 -105 "},"a":{"x_min":37,"x_max":598,"ha":636,"o":"m 598 14 l 557 14 q 404 0 506 15 l 407 108 l 405 108 q 245 -8 320 -8 q 98 55 159 -8 q 37 204 37 118 q 111 361 37 294 q 277 429 185 429 q 404 388 323 429 l 404 480 q 378 591 404 554 q 281 648 352 627 q 228 590 262 640 q 112 577 152 590 q 191 652 135 622 q 298 682 246 682 q 494 619 449 682 q 529 411 529 570 l 529 50 q 598 38 562 47 l 598 14 m 404 219 q 376 331 404 285 q 280 387 342 387 q 188 334 220 387 q 162 226 162 290 q 200 121 162 170 q 295 67 241 67 q 373 123 340 67 q 404 219 404 172 "},"—":{"x_min":38,"x_max":1427,"ha":1465,"o":"m 1427 282 l 38 282 l 38 383 l 1427 383 l 1427 282 "},"=":{"x_min":29,"x_max":731.828125,"ha":761,"o":"m 731 446 l 29 446 l 29 547 l 731 547 l 731 446 m 731 163 l 29 163 l 29 264 l 731 264 l 731 163 "},"N":{"x_min":46,"x_max":1097.46875,"ha":1143,"o":"m 1097 52 l 984 -17 q 579 387 950 19 q 187 805 332 630 l 184 805 q 192 673 192 707 q 180 392 192 580 q 169 111 169 204 q 169 8 169 56 q 46 -25 128 -1 q 64 304 48 36 q 77 634 77 507 q 59 998 77 901 l 200 1024 q 432 733 287 886 q 701 469 508 654 q 965 205 876 302 l 967 206 q 957 594 955 349 q 954 981 958 877 q 1080 1015 1018 994 q 1067 377 1067 545 q 1068 213 1067 241 q 1097 52 1073 114 "},"˚":{"x_min":39,"x_max":375,"ha":414,"o":"m 375 842 q 319 746 375 780 q 207 717 272 717 q 93 744 137 717 q 39 842 39 776 q 91 944 39 908 q 207 974 136 974 q 375 842 375 974 m 292 847 q 207 932 292 932 q 122 842 122 932 q 207 759 122 759 q 292 847 292 759 "},"ú":{"x_min":31,"x_max":629.65625,"ha":661,"o":"m 500 927 l 293 747 l 247 798 q 431 1007 364 920 l 500 927 m 629 676 q 615 338 621 539 q 607 0 611 169 l 479 0 l 485 113 l 479 113 q 357 -8 437 44 q 145 107 207 -6 q 99 361 99 193 q 103 503 99 412 q 108 626 108 594 q 31 627 90 630 l 58 676 q 240 676 153 670 q 220 292 220 469 q 268 161 220 216 q 391 101 316 101 q 497 453 497 101 q 489 676 497 481 q 629 676 564 671 "},"⁄":{"x_min":-119.0625,"x_max":574.109375,"ha":456,"o":"m 574 954 l -31 -51 l -119 -51 l 486 954 l 574 954 "},"2":{"x_min":21,"x_max":621.0625,"ha":642,"o":"m 621 0 q 319 21 462 21 q 29 0 137 21 l 21 8 q 200 215 109 111 q 366 430 302 336 l 364 433 q 276 418 333 418 q 126 491 178 418 q 81 658 81 555 q 150 839 81 770 q 332 908 219 908 q 512 841 437 908 q 588 670 588 774 q 455 366 588 551 q 237 101 415 309 q 396 97 294 97 q 621 120 528 97 l 621 0 m 480 698 q 449 811 480 766 q 349 866 414 866 q 206 651 206 866 q 226 529 206 580 q 317 460 256 460 q 439 545 392 460 q 480 698 480 617 "},"ü":{"x_min":31,"x_max":629.65625,"ha":661,"o":"m 579 929 q 550 840 569 868 q 471 828 543 828 l 371 828 l 410 929 q 490 929 465 929 q 579 929 517 929 m 333 929 l 289 828 l 125 828 q 154 876 149 867 q 174 929 169 906 q 246 929 218 929 q 333 929 271 929 m 629 676 q 615 338 621 539 q 607 0 611 169 l 479 0 l 485 113 l 479 113 q 357 -8 437 44 q 145 107 207 -6 q 99 361 99 193 q 103 503 99 412 q 108 626 108 594 q 31 627 90 630 l 58 676 q 240 676 153 670 q 220 292 220 469 q 268 161 220 216 q 391 101 316 101 q 497 453 497 101 q 489 676 497 481 q 629 676 564 671 "},"¯":{"x_min":-9,"x_max":427.140625,"ha":417,"o":"m 427 931 q 406 875 409 882 q 366 838 389 842 q 193 828 304 828 q -9 841 28 828 l 27 931 q 135 925 45 931 q 242 921 200 921 q 335 925 277 921 q 427 931 403 931 "},"Z":{"x_min":-22.09375,"x_max":879.1875,"ha":856,"o":"m 879 1016 l 204 84 q 431 76 319 76 l 523 76 q 869 115 763 76 l 876 98 l 718 0 l -6 0 l -22 8 l 650 922 q 448 915 509 915 q 69 941 317 915 l 69 953 l 174 1031 q 554 990 293 990 q 863 1023 738 990 l 879 1016 "},"u":{"x_min":31,"x_max":629.65625,"ha":661,"o":"m 629 676 q 615 338 621 539 q 607 0 611 169 l 479 0 l 485 113 l 479 113 q 357 -8 437 44 q 145 107 207 -6 q 99 361 99 193 q 103 503 99 412 q 108 626 108 594 q 31 627 90 630 l 58 676 q 240 676 153 670 q 220 292 220 469 q 268 161 220 216 q 391 101 316 101 q 497 453 497 101 q 489 676 497 481 q 629 676 564 671 "},"":{"x_min":15,"x_max":647,"ha":663,"o":"m 647 87 q 460 -17 548 38 l 456 -11 q 412 98 412 37 q 424 455 412 217 q 437 812 437 693 q 437 851 437 826 q 437 887 437 876 q 419 961 437 940 q 332 989 397 989 q 223 925 249 989 q 208 785 208 886 l 208 658 l 369 658 l 337 591 l 208 591 q 197 209 197 188 q 208 4 197 97 q 73 -8 117 4 q 87 247 87 84 l 87 591 l 15 591 l 48 658 l 87 658 q 124 916 98 857 q 341 1031 176 1031 q 453 1031 344 1031 q 567 1031 519 1029 q 537 170 537 557 q 577 95 537 95 q 642 119 601 95 l 647 87 "},"˜":{"x_min":-19,"x_max":439.375,"ha":421,"o":"m 439 920 q 387 835 414 877 q 312 783 353 783 q 215 817 296 783 q 110 852 133 852 q 35 793 65 852 l -19 822 q 32 905 -16 823 q 108 960 64 960 q 225 925 146 960 q 321 891 304 891 q 389 947 357 891 l 439 920 "},"Ó":{"x_min":62,"x_max":1112,"ha":1174,"o":"m 735 1226 l 528 1045 l 483 1097 q 666 1306 599 1219 l 735 1226 m 1112 566 q 1075 278 1112 376 q 882 74 1025 145 q 710 13 820 44 q 530 -17 593 -17 q 190 112 318 -17 q 62 456 62 242 q 228 894 62 759 q 691 1015 380 1015 q 992 877 867 1015 q 1112 566 1112 744 m 970 505 q 857 801 970 648 q 603 965 738 965 q 321 797 446 965 q 204 470 204 640 q 320 186 204 317 q 591 50 439 50 q 877 191 771 50 q 970 505 970 317 "},"k":{"x_min":23,"x_max":640.109375,"ha":663,"o":"m 640 63 l 542 -17 q 383 162 427 113 q 215 334 291 262 q 219 29 210 220 q 89 -8 156 23 l 89 37 q 107 829 107 387 l 107 950 q 23 999 107 994 l 23 1024 l 242 1049 q 215 354 217 768 q 506 682 288 426 l 594 615 q 334 373 470 508 q 640 63 335 372 "},"ˇ":{"x_min":1,"x_max":413.53125,"ha":415,"o":"m 413 941 q 166 746 302 865 q 87 843 138 787 q 1 936 44 890 l 73 993 l 180 869 l 376 997 l 413 941 "},"Ù":{"x_min":51,"x_max":1116.359375,"ha":1167,"o":"m 661 1097 l 616 1045 l 409 1226 l 478 1306 q 661 1097 545 1219 m 1116 984 q 1041 575 1078 780 q 881 173 980 311 q 534 -8 751 -8 q 213 176 328 -8 q 87 579 126 318 q 51 974 77 644 l 209 1015 q 231 636 220 824 q 338 257 257 388 q 648 85 442 85 q 762 130 734 85 q 971 1007 876 314 l 1116 984 "},"Ÿ":{"x_min":-10,"x_max":1074.8125,"ha":1095,"o":"m 748 1228 q 719 1139 738 1167 q 640 1127 712 1127 l 540 1127 l 578 1228 q 659 1228 634 1228 q 748 1228 685 1228 m 502 1228 l 458 1127 l 294 1127 q 323 1175 317 1166 q 342 1228 338 1205 q 415 1228 387 1228 q 502 1228 440 1228 m 1074 1015 q 608 452 869 683 q 597 188 597 283 q 608 -4 597 82 q 452 -4 515 4 q 458 277 458 77 q 452 432 458 379 q -10 993 176 722 q 151 1055 99 1025 q 565 526 271 855 q 951 1006 798 711 q 1074 1015 1028 1006 "},"¢":{"x_min":66,"x_max":554.921875,"ha":622,"o":"m 554 563 l 455 515 q 360 583 405 565 q 344 94 344 329 q 411 79 375 79 q 531 127 459 79 l 531 80 q 344 -8 439 9 l 344 -167 q 256 -208 297 -173 q 285 -8 279 -149 q 122 155 188 27 q 66 384 66 270 q 128 573 66 508 q 303 673 174 622 l 309 815 l 396 847 q 372 681 377 779 q 554 563 457 681 m 302 602 q 286 605 288 605 q 218 525 244 605 q 199 411 199 463 q 291 145 199 258 q 302 602 302 525 "},"Ω":{"x_min":41,"x_max":969,"ha":1011,"o":"m 969 566 q 868 320 969 416 q 624 207 779 236 l 624 125 l 794 125 q 890 152 864 125 q 917 244 912 177 l 949 244 l 949 0 l 571 0 l 571 250 q 746 362 683 272 q 805 566 805 447 q 725 799 805 710 q 505 888 646 888 q 284 798 364 888 q 205 566 205 708 q 261 362 205 444 q 438 250 322 273 l 438 0 l 60 0 l 60 244 l 92 244 q 120 150 96 176 q 214 125 145 125 l 385 125 l 385 207 q 140 320 231 234 q 41 566 41 416 q 186 850 41 749 q 505 938 314 938 q 823 850 695 938 q 969 566 969 749 "},"ß":{"x_min":19,"x_max":588,"ha":607,"o":"m 588 255 q 500 86 588 180 q 338 -8 413 -8 q 219 55 270 -8 l 313 125 q 399 67 363 67 q 460 104 435 67 q 480 175 480 137 q 439 330 480 241 q 363 472 420 373 q 322 562 322 543 q 373 654 322 573 q 424 768 424 734 q 357 897 424 841 q 216 948 293 948 q 140 409 140 857 q 145 150 140 296 q 150 3 150 4 l 19 -8 l 30 627 q 253 1025 35 929 q 310 1032 270 1032 q 465 975 398 1032 q 532 833 532 918 q 468 699 532 783 q 405 604 405 615 q 453 541 405 598 q 540 416 510 472 q 588 255 588 330 "},"é":{"x_min":-6,"x_max":509.3125,"ha":560,"o":"m 384 927 l 177 747 l 131 798 q 314 1007 248 920 l 384 927 m 509 469 q 128 304 356 397 q 192 159 141 223 q 327 85 252 85 q 466 155 381 85 l 489 136 q 274 -8 355 -8 q 59 122 137 -8 q -6 377 -6 232 q 77 577 -6 479 q 263 682 164 682 q 421 615 339 682 q 509 469 507 544 m 367 468 q 307 558 367 511 q 203 606 248 606 q 138 521 163 606 q 119 405 119 455 q 121 347 119 384 q 250 398 185 373 q 367 468 367 448 "},"s":{"x_min":12,"x_max":459.265625,"ha":471,"o":"m 459 590 l 366 505 q 192 597 274 597 q 147 579 165 597 q 129 534 129 562 q 209 419 129 469 q 359 336 284 377 q 441 191 441 277 q 363 47 441 107 q 204 -8 292 -8 q 12 59 95 -8 l 116 148 q 261 67 200 67 q 341 135 341 67 q 266 232 341 193 q 127 305 128 304 q 54 462 54 362 q 116 613 54 545 q 262 682 178 682 q 459 590 371 682 "},"B":{"x_min":12,"x_max":672,"ha":683,"o":"m 672 266 q 453 48 672 118 q 120 0 305 0 l 12 0 l 12 42 l 98 42 l 103 949 q 12 949 49 954 l 12 989 q 377 999 149 999 q 560 950 483 999 q 654 791 654 892 q 584 634 654 698 q 430 544 534 587 q 672 266 672 423 m 522 233 q 460 377 522 320 q 347 443 424 411 q 288 483 288 469 q 343 530 288 497 q 446 607 414 572 q 504 746 504 666 q 441 894 504 839 q 285 949 379 949 l 249 949 l 236 50 q 420 93 369 70 q 522 233 522 137 "},"…":{"x_min":87,"x_max":1187.09375,"ha":1275,"o":"m 1187 93 l 1073 -8 l 1012 126 l 1132 244 l 1187 93 m 724 93 l 610 -8 l 549 126 l 670 244 l 724 93 m 262 93 l 148 -8 l 87 126 l 207 244 l 262 93 "},"?":{"x_min":57,"x_max":299,"ha":356,"o":"m 299 794 q 246 613 299 731 q 193 431 193 495 q 287 279 193 386 l 200 195 q 93 402 93 305 q 146 577 93 461 q 199 743 199 693 q 154 840 199 801 q 57 898 132 858 l 197 1007 q 299 794 299 912 m 257 143 l 249 16 l 132 -8 l 140 118 l 257 143 "},"H":{"x_min":54,"x_max":1111.03125,"ha":1165,"o":"m 1111 1007 q 1075 397 1075 691 q 1094 8 1075 185 l 942 -8 l 942 470 q 624 439 814 439 q 421 444 555 439 q 224 450 287 450 l 212 16 l 54 -8 q 83 652 83 337 q 65 990 83 823 l 215 1007 q 225 510 225 823 l 803 510 q 901 516 882 510 q 949 591 947 530 l 962 998 l 1111 1007 "},"î":{"x_min":-25,"x_max":387.53125,"ha":361,"o":"m 387 815 l 315 757 l 208 882 l 12 752 l -25 809 q 222 1007 77 880 q 301 908 250 963 q 387 815 344 862 m 332 30 q 142 -8 171 -8 q 119 36 119 -8 q 127 312 119 128 q 135 588 135 497 q 108 620 135 615 q 61 622 101 622 l 72 662 q 270 682 138 666 q 256 391 269 651 q 250 100 250 213 q 266 56 250 56 q 332 68 276 56 l 332 30 "},"c":{"x_min":12,"x_max":500.921875,"ha":514,"o":"m 500 563 l 402 513 q 324 575 370 548 q 231 606 271 606 q 163 528 186 606 q 145 414 145 471 q 197 207 145 311 q 354 85 261 85 q 480 133 410 85 l 480 86 q 373 23 437 51 q 253 -8 300 -8 q 77 146 155 -8 q 12 383 12 276 q 35 498 12 434 q 96 598 60 569 q 198 650 123 619 q 303 682 274 682 q 500 563 396 682 "},"¶":{"x_min":57,"x_max":724,"ha":782,"o":"m 724 -261 l 624 -261 l 624 915 l 453 915 l 453 -261 l 353 -261 l 353 482 q 148 550 232 482 q 57 740 57 622 q 378 1007 57 1007 l 724 1007 l 724 -261 "},"−":{"x_min":34,"x_max":736.84375,"ha":772,"o":"m 736 301 l 34 301 l 34 401 l 736 401 l 736 301 "},"≠":{"x_min":1,"x_max":1277.484375,"ha":1278,"o":"m 1277 715 q 1246 650 1277 687 q 1189 613 1216 613 q 1158 647 1158 613 q 1187 712 1158 675 q 1244 749 1217 749 q 1277 715 1277 749 m 1135 454 q 1096 385 1135 444 q 956 83 999 234 q 944 44 946 50 q 913 24 933 24 q 883 57 883 24 q 973 294 883 113 q 1109 480 1067 480 q 1135 454 1135 480 m 1169 890 q 1049 695 1169 807 q 846 581 930 583 l 808 613 q 898 682 820 640 q 1028 760 996 735 q 1095 875 1095 814 q 1046 920 1095 920 q 829 818 943 920 q 715 615 715 717 q 797 419 715 542 q 880 237 880 296 q 782 79 880 143 q 599 24 698 24 q 421 98 468 24 q 206 19 332 19 q 66 56 121 19 q 1 178 1 99 q 42 285 1 240 q 145 330 84 330 l 178 297 q 153 267 178 279 q 106 241 113 248 q 82 180 82 220 q 119 110 82 135 q 198 88 151 88 q 332 124 270 88 q 405 235 405 167 q 325 405 405 288 q 245 595 245 523 q 386 859 245 732 q 665 983 524 983 q 744 956 713 983 q 775 886 775 930 q 775 857 775 872 q 1058 988 916 988 q 1137 962 1105 988 q 1169 890 1169 936 m 798 240 q 718 409 798 291 q 639 600 639 527 q 653 691 639 645 q 559 618 620 656 q 453 577 489 577 q 427 586 439 577 q 414 608 414 595 q 488 666 414 625 q 627 750 590 720 q 703 870 703 809 q 654 915 703 915 q 436 813 551 915 q 321 610 321 712 q 375 454 321 544 q 464 309 420 381 q 538 335 503 335 q 572 301 572 335 q 545 271 572 282 q 499 247 506 252 q 474 186 474 226 q 590 93 474 93 q 725 129 663 93 q 798 240 798 172 "},"•":{"x_min":65,"x_max":565.046875,"ha":629,"o":"m 565 504 q 491 326 565 401 q 315 251 417 251 q 137 326 210 251 q 65 504 65 401 q 137 681 65 607 q 315 756 210 756 q 491 681 417 756 q 565 504 565 607 "},"¥":{"x_min":-53,"x_max":730.390625,"ha":678,"o":"m 730 982 q 435 495 609 741 q 601 508 512 495 l 601 411 q 410 419 556 419 l 410 270 q 601 283 513 270 l 601 186 q 410 194 556 194 l 410 -4 q 277 -4 337 4 l 277 194 q 103 186 244 194 l 103 287 q 277 270 179 270 l 277 419 q 103 411 244 419 l 103 513 q 249 497 172 497 q -53 965 147 652 l 105 1007 q 367 547 181 811 q 594 1007 522 716 q 730 982 652 982 "},"(":{"x_min":17,"x_max":271.1875,"ha":288,"o":"m 271 963 q 109 390 109 681 q 211 -63 109 143 l 158 -129 q 17 413 17 77 q 171 1015 17 759 l 271 963 "},"U":{"x_min":51,"x_max":1116.359375,"ha":1167,"o":"m 1116 984 q 1041 575 1078 780 q 881 173 980 311 q 534 -8 751 -8 q 213 176 328 -8 q 87 579 126 318 q 51 974 77 644 l 209 1015 q 231 636 220 824 q 338 257 257 388 q 648 85 442 85 q 762 130 734 85 q 971 1007 876 314 l 1116 984 "},"◊":{"x_min":-31.984375,"x_max":645.84375,"ha":614,"o":"m 645 401 l 306 -324 l -31 401 l 306 1121 l 645 401 m 568 401 l 306 956 l 45 401 l 306 -158 l 568 401 "},"Ñ":{"x_min":46,"x_max":1097.46875,"ha":1143,"o":"m 801 1219 q 750 1134 776 1176 q 675 1082 715 1082 q 577 1116 658 1082 q 472 1150 496 1150 q 397 1091 426 1150 l 343 1120 q 394 1203 346 1122 q 471 1258 426 1258 q 587 1224 508 1258 q 683 1190 666 1190 q 751 1245 719 1190 l 801 1219 m 1097 52 l 984 -17 q 579 387 950 19 q 187 805 332 630 l 184 805 q 192 673 192 707 q 180 392 192 580 q 169 111 169 204 q 169 8 169 56 q 46 -25 128 -1 q 64 304 48 36 q 77 634 77 507 q 59 998 77 901 l 200 1024 q 432 733 287 886 q 701 469 508 654 q 965 205 876 302 l 967 206 q 957 594 955 349 q 954 981 958 877 q 1080 1015 1018 994 q 1067 377 1067 545 q 1068 213 1067 241 q 1097 52 1073 114 "},"F":{"x_min":47,"x_max":680.390625,"ha":663,"o":"m 680 1005 l 598 936 q 413 949 515 949 q 244 940 313 949 q 218 643 218 798 q 222 557 218 600 q 435 542 322 542 q 590 554 505 542 l 601 539 l 528 463 q 251 473 387 473 q 197 269 197 473 q 203 103 197 204 q 209 -8 209 2 q 47 -25 130 -12 q 85 816 85 350 q 66 1024 85 967 q 460 1007 299 1007 q 672 1024 541 1007 l 680 1005 "},"­":{"x_min":34,"x_max":736.84375,"ha":772,"o":"m 736 301 l 34 301 l 34 401 l 736 401 l 736 301 "},":":{"x_min":43,"x_max":221,"ha":264,"o":"m 221 508 q 130 397 188 473 q 54 520 86 481 q 150 629 98 563 q 221 508 179 563 m 209 78 q 102 -17 173 52 q 43 122 77 52 q 155 216 102 165 q 209 78 183 123 "},"Û":{"x_min":51,"x_max":1116.359375,"ha":1167,"o":"m 769 1114 l 696 1055 l 589 1180 l 394 1051 l 356 1108 q 603 1306 460 1179 q 682 1207 631 1262 q 769 1114 726 1161 m 1116 984 q 1041 575 1078 780 q 881 173 980 311 q 534 -8 751 -8 q 213 176 328 -8 q 87 579 126 318 q 51 974 77 644 l 209 1015 q 231 636 220 824 q 338 257 257 388 q 648 85 442 85 q 762 130 734 85 q 971 1007 876 314 l 1116 984 "},"*":{"x_min":-4,"x_max":509.9375,"ha":507,"o":"m 509 650 q 458 570 493 586 q 279 707 359 655 q 286 611 279 675 q 294 518 294 548 q 252 501 294 512 q 195 485 202 489 l 187 493 l 186 505 q 196 604 186 537 q 207 704 207 670 q 62 565 157 659 q 23 604 36 588 q -4 651 0 630 q 83 695 8 665 q 186 743 166 729 q -1 836 124 775 q 55 919 7 883 q 136 859 87 900 q 212 798 190 813 q 211 900 212 848 q 198 1000 208 958 q 305 1007 273 1007 q 287 800 287 848 q 444 937 340 845 q 483 855 473 891 q 304 762 423 826 q 509 650 407 707 "},"†":{"x_min":3,"x_max":662.765625,"ha":664,"o":"m 662 745 l 629 660 l 405 660 q 387 273 387 407 q 404 8 387 119 l 261 -8 q 256 219 256 58 q 271 660 256 382 l 144 660 q 3 640 66 660 q 48 735 39 691 l 271 735 l 271 1002 q 412 1015 318 1003 q 410 875 412 966 q 409 735 409 776 q 662 745 607 735 "},"°":{"x_min":53,"x_max":450,"ha":501,"o":"m 450 727 q 391 586 450 644 q 251 528 333 528 q 110 586 168 528 q 53 727 53 644 q 110 870 53 811 q 251 929 168 929 q 391 870 333 929 q 450 727 450 811 m 400 728 q 356 833 400 789 q 251 878 312 878 q 146 833 189 878 q 103 728 103 789 q 146 622 103 666 q 251 578 189 578 q 356 622 312 578 q 400 728 400 666 "},"V":{"x_min":6,"x_max":1167.203125,"ha":1174,"o":"m 1167 1024 q 904 548 1106 846 q 626 77 690 229 l 656 19 l 508 -17 q 6 970 206 545 l 167 1024 q 585 155 351 584 q 813 569 633 252 q 1025 990 958 826 l 1167 1024 "},"å":{"x_min":37,"x_max":598,"ha":636,"o":"m 497 849 q 442 752 497 786 q 329 723 395 723 q 215 750 259 723 q 161 849 161 784 q 213 952 161 917 q 329 983 258 983 q 497 849 497 983 m 598 14 l 557 14 q 404 0 506 15 l 407 108 l 405 108 q 245 -8 320 -8 q 98 55 159 -8 q 37 204 37 118 q 111 362 37 295 q 277 430 185 430 q 404 388 323 430 l 404 480 q 378 591 404 554 q 281 648 352 627 q 228 590 262 640 q 112 577 152 590 q 191 652 135 622 q 298 682 246 682 q 494 619 449 682 q 529 411 529 570 l 529 50 q 598 38 562 47 l 598 14 m 414 855 q 329 941 414 941 q 244 849 244 941 q 266 787 244 810 q 329 765 289 765 q 414 855 414 765 m 404 219 q 376 332 404 286 q 280 388 342 388 q 188 335 220 388 q 162 226 162 290 q 200 121 162 171 q 295 67 241 67 q 373 123 340 67 q 404 219 404 172 "}," ":{"x_min":0,"x_max":0,"ha":381},"0":{"x_min":10,"x_max":632,"ha":642,"o":"m 632 519 q 557 183 632 337 q 300 -8 462 -8 q 87 134 175 -8 q 10 390 10 259 q 43 649 10 519 q 173 860 87 828 q 268 886 186 864 q 357 908 351 908 q 569 774 491 908 q 632 519 632 663 m 499 446 q 329 866 499 764 q 143 451 143 745 q 181 198 143 301 q 355 33 234 55 q 499 446 499 170 "},"":{"x_min":41,"x_max":985.515625,"ha":1028,"o":"m 756 1053 q 689 896 756 969 q 541 823 623 823 q 530 825 535 823 q 530 837 530 829 q 530 850 530 845 q 599 1010 530 939 q 754 1095 664 1076 q 756 1074 754 1088 q 756 1053 756 1060 m 985 273 q 882 83 923 138 q 707 -24 803 -24 q 621 -1 677 -24 q 535 20 566 20 q 447 -1 504 20 q 360 -24 391 -24 q 131 180 235 -24 q 41 499 41 358 q 121 736 41 643 q 345 836 204 836 q 441 812 379 836 q 534 788 503 788 q 625 812 564 788 q 720 836 686 836 q 963 725 868 836 q 827 502 827 638 q 985 273 827 341 "},"”":{"x_min":0,"x_max":377.8125,"ha":379,"o":"m 377 1007 q 277 750 306 873 q 177 732 231 750 l 283 998 q 377 1007 331 998 m 200 1007 q 100 750 129 873 q 0 732 54 750 l 105 998 q 200 1007 154 998 "},"¾":{"x_min":21,"x_max":1004.421875,"ha":1025,"o":"m 1004 108 l 957 108 l 957 12 l 860 -8 l 860 108 l 625 108 l 855 513 l 957 537 l 957 166 l 1004 166 l 1004 108 m 904 976 l 298 -39 l 210 -39 l 815 976 l 904 976 m 398 551 q 346 450 398 504 q 261 371 304 411 q 210 363 253 363 q 21 448 104 363 l 86 513 q 236 430 146 430 q 289 466 269 430 q 306 532 306 495 q 248 621 306 597 q 134 635 212 635 q 271 825 187 703 l 41 825 l 98 900 q 198 892 127 892 q 294 896 230 892 q 389 900 358 900 q 237 701 365 855 q 348 657 299 701 q 398 551 398 612 m 865 166 l 865 437 l 865 437 l 712 166 l 865 166 "},"@":{"x_min":68,"x_max":1038,"ha":1106,"o":"m 1038 590 q 946 332 1038 454 q 715 199 847 199 q 653 222 678 199 q 626 283 629 246 l 624 283 q 464 199 550 199 q 321 265 378 199 q 267 417 267 328 q 350 669 267 557 q 576 792 440 792 q 730 686 682 792 l 757 769 l 848 769 q 775 548 811 659 q 727 324 727 405 q 755 288 727 288 q 903 394 842 288 q 955 580 955 487 q 840 840 955 741 q 568 932 732 932 q 269 807 388 932 q 151 501 151 682 q 273 199 151 321 q 577 77 396 77 q 761 114 676 77 q 906 230 852 155 l 997 230 q 820 56 933 121 q 579 -8 706 -8 q 215 142 363 -8 q 68 508 68 293 q 216 866 68 717 q 575 1015 365 1015 q 897 898 764 1015 q 1038 590 1038 776 m 687 572 q 655 659 687 619 q 576 699 624 699 q 430 605 492 699 q 375 432 375 521 q 401 336 375 375 q 487 292 432 292 q 632 393 571 292 q 687 572 687 483 "},"ö":{"x_min":34,"x_max":608,"ha":643,"o":"m 547 929 q 518 840 538 868 q 439 828 510 828 l 339 828 l 378 929 q 459 929 434 929 q 547 929 484 929 m 302 929 l 257 828 l 93 828 q 122 876 117 867 q 142 929 138 906 q 214 929 186 929 q 302 929 238 929 m 608 369 q 517 116 608 232 q 284 -8 420 -8 q 100 107 175 -8 q 34 322 34 209 q 133 575 34 469 q 380 682 232 682 q 556 577 495 682 q 608 369 608 491 m 475 312 q 444 502 475 425 q 303 614 399 614 q 194 505 232 614 q 167 341 167 426 q 217 165 167 250 q 363 67 275 67 q 413 110 380 67 q 452 169 442 147 q 475 312 475 219 "},"i":{"x_min":46,"x_max":317,"ha":361,"o":"m 282 929 q 220 824 275 824 l 104 824 q 134 929 121 864 q 212 925 219 925 q 282 929 201 925 m 317 30 q 127 -8 156 -8 q 104 36 104 -8 q 112 312 104 128 q 120 588 120 497 q 93 620 120 615 q 46 622 86 622 l 57 662 q 255 682 123 666 q 241 391 254 651 q 235 100 235 213 q 251 56 235 56 q 317 68 261 56 l 317 30 "},"≤":{"x_min":32,"x_max":675.09375,"ha":707,"o":"m 675 143 l 33 344 l 33 434 l 675 636 l 675 538 l 198 389 l 675 240 l 675 143 m 675 25 l 32 25 l 32 119 l 675 119 l 675 25 "},"Õ":{"x_min":62,"x_max":1112,"ha":1174,"o":"m 817 1219 q 766 1134 792 1176 q 691 1082 731 1082 q 593 1116 674 1082 q 488 1150 512 1150 q 413 1091 442 1150 l 359 1120 q 410 1203 362 1122 q 487 1258 442 1258 q 603 1224 524 1258 q 699 1190 682 1190 q 767 1245 735 1190 l 817 1219 m 1112 566 q 1075 278 1112 376 q 882 74 1025 145 q 710 13 820 44 q 530 -17 593 -17 q 190 112 318 -17 q 62 456 62 242 q 228 894 62 759 q 691 1015 380 1015 q 992 877 867 1015 q 1112 566 1112 744 m 970 505 q 857 801 970 648 q 603 965 738 965 q 321 797 446 965 q 204 470 204 640 q 320 186 204 317 q 591 50 439 50 q 877 191 771 50 q 970 505 970 317 "},"þ":{"x_min":7,"x_max":600,"ha":607,"o":"m 600 402 q 576 247 600 332 q 505 112 548 147 q 404 40 462 78 q 296 -8 326 -8 q 191 61 266 -8 q 178 -249 180 -81 q 50 -269 120 -255 q 86 415 86 82 q 76 943 86 389 l 7 957 l 7 982 q 203 1024 97 987 l 199 562 l 203 559 l 203 565 q 395 682 302 682 q 552 590 497 682 q 600 402 600 512 m 475 395 q 431 529 475 468 q 314 597 384 597 q 223 527 252 597 q 203 407 203 477 l 203 286 q 255 113 203 160 q 343 59 316 59 q 376 83 352 59 q 475 395 475 190 "},"]":{"x_min":49,"x_max":327,"ha":376,"o":"m 327 -133 q 292 -129 293 -129 q 49 -142 218 -129 l 64 -59 l 139 -61 q 216 -56 150 -61 q 227 394 227 309 l 227 629 q 218 949 227 764 q 140 945 192 949 q 62 941 87 941 l 86 1020 q 208 1014 147 1017 q 327 1025 288 1012 l 327 -133 "},"m":{"x_min":-9,"x_max":1034.140625,"ha":1025,"o":"m 1034 54 l 1010 -4 q 800 0 956 0 q 860 415 860 268 q 703 581 860 581 q 579 202 579 581 q 581 91 579 156 q 582 13 582 25 q 443 -13 496 7 q 471 391 471 134 q 449 530 471 493 q 322 581 418 581 q 199 176 199 581 q 200 82 199 137 q 200 17 200 26 q 66 -8 118 12 q 92 341 92 172 q 86 613 92 427 l -9 648 l -9 673 q 214 682 143 673 q 210 562 211 570 l 210 562 q 419 682 303 682 q 592 563 541 682 q 792 682 681 682 q 940 611 889 682 q 984 448 984 548 q 929 50 984 338 q 1034 54 1004 50 "},"8":{"x_min":42,"x_max":600,"ha":642,"o":"m 600 241 q 519 56 600 130 q 327 -17 438 -17 q 130 49 212 -17 q 42 234 42 121 q 91 378 42 320 q 225 448 140 435 l 225 451 q 101 531 150 470 q 53 670 53 592 q 136 841 53 771 q 316 908 213 908 q 507 844 429 908 q 592 664 592 776 q 550 528 592 592 q 440 445 508 464 l 440 442 q 554 367 508 423 q 600 241 600 310 m 467 692 q 433 812 467 758 q 331 875 393 875 q 228 818 270 875 q 186 698 186 762 q 223 559 186 623 q 335 483 266 483 q 433 562 393 483 q 467 692 467 628 m 467 248 q 435 376 467 327 q 321 433 396 433 q 209 362 251 433 q 175 227 175 302 q 209 93 175 151 q 322 25 250 25 q 437 102 400 25 q 467 248 467 161 "},"ž":{"x_min":-14,"x_max":495.765625,"ha":482,"o":"m 479 941 q 231 745 367 865 q 152 843 204 787 q 66 936 109 890 l 138 993 l 245 869 l 441 997 l 479 941 m 495 654 q 319 364 338 399 q 162 64 222 199 q 265 59 267 59 q 462 80 374 59 l 473 69 l 424 -8 q 224 6 337 6 q -2 -8 109 6 l -14 8 l 312 579 q 232 581 286 579 q 151 584 179 584 q 20 565 90 584 l 9 573 l 65 667 q 495 654 302 644 "},"R":{"x_min":-12,"x_max":860.296875,"ha":846,"o":"m 860 63 l 731 -25 q 228 433 463 173 q 425 523 349 456 q 516 715 516 601 q 428 901 516 836 q 228 961 350 961 q 203 8 203 677 q 42 0 126 0 q 69 654 69 265 l 69 957 l -12 957 l -12 999 q 137 1008 24 1000 q 289 1015 232 1015 q 533 973 433 1015 q 674 791 674 915 q 574 591 674 706 q 397 444 485 490 q 860 63 664 186 "},"á":{"x_min":37,"x_max":598,"ha":636,"o":"m 475 927 l 268 747 l 223 798 q 406 1007 339 920 l 475 927 m 598 14 l 557 14 q 404 0 506 15 l 407 108 l 405 108 q 245 -8 320 -8 q 98 55 159 -8 q 37 204 37 118 q 111 362 37 295 q 277 430 185 430 q 404 388 323 430 l 404 480 q 378 591 404 554 q 281 648 352 627 q 228 590 262 640 q 112 577 152 590 q 191 652 135 622 q 298 682 246 682 q 494 619 449 682 q 529 411 529 570 l 529 50 q 598 38 562 47 l 598 14 m 404 219 q 376 332 404 286 q 280 388 342 388 q 188 335 220 388 q 162 226 162 290 q 200 121 162 171 q 295 67 241 67 q 373 123 340 67 q 404 219 404 172 "},"×":{"x_min":66,"x_max":701.890625,"ha":768,"o":"m 701 105 l 631 33 l 383 284 l 136 33 l 66 105 l 313 355 l 66 604 l 136 676 l 384 426 l 631 676 l 701 604 l 452 355 l 701 105 "},"o":{"x_min":34,"x_max":608,"ha":643,"o":"m 608 369 q 517 116 608 232 q 284 -8 420 -8 q 100 107 175 -8 q 34 322 34 209 q 133 575 34 469 q 380 682 232 682 q 556 577 495 682 q 608 369 608 491 m 475 312 q 444 502 475 425 q 303 614 399 614 q 194 505 232 614 q 167 341 167 426 q 217 165 167 250 q 363 67 275 67 q 413 110 380 67 q 452 169 442 147 q 475 312 475 219 "},"5":{"x_min":25,"x_max":617,"ha":642,"o":"m 617 370 q 523 119 617 244 q 300 -17 422 -17 q 152 35 236 -17 q 25 133 111 62 q 144 241 69 165 q 365 66 258 66 q 470 141 431 66 q 500 274 500 200 q 451 428 500 363 q 311 501 397 501 q 102 365 204 501 l 90 373 q 102 862 111 561 q 247 856 168 856 q 411 861 308 856 q 573 867 530 865 l 590 854 q 562 788 572 819 q 352 792 476 792 l 219 792 q 215 684 215 739 q 219 526 215 601 q 421 576 329 576 q 566 521 516 576 q 617 370 617 466 "},"õ":{"x_min":34,"x_max":608,"ha":643,"o":"m 550 921 q 499 836 525 878 q 424 784 464 784 q 326 818 407 784 q 221 852 245 852 q 146 793 175 852 l 92 822 q 143 905 95 823 q 220 960 175 960 q 336 926 256 960 q 432 892 415 892 q 500 947 468 892 l 550 921 m 608 369 q 517 116 608 232 q 284 -8 420 -8 q 100 107 175 -8 q 34 322 34 209 q 133 575 34 469 q 380 682 232 682 q 556 577 495 682 q 608 369 608 491 m 475 312 q 444 502 475 425 q 303 614 399 614 q 194 505 232 614 q 167 341 167 426 q 217 165 167 250 q 363 67 275 67 q 413 110 380 67 q 452 169 442 147 q 475 312 475 219 "},"7":{"x_min":15,"x_max":626.15625,"ha":642,"o":"m 626 906 q 409 484 517 695 q 242 39 242 141 q 88 -8 149 25 l 80 3 q 269 404 149 178 q 480 793 374 598 q 312 800 426 800 q 15 765 162 800 l 76 918 q 305 900 148 900 q 619 926 509 900 l 626 906 "},"K":{"x_min":37,"x_max":966.25,"ha":1003,"o":"m 966 52 q 850 -42 895 5 q 525 201 717 37 q 231 487 334 366 q 514 733 432 656 q 771 1006 669 876 q 950 1032 852 1008 l 956 1019 q 680 761 852 904 q 387 522 534 641 q 966 52 712 192 m 218 754 l 218 650 q 196 0 218 472 q 39 -8 144 -1 q 68 594 68 287 q 37 998 68 851 q 209 1032 106 1008 q 218 754 218 932 "},",":{"x_min":62,"x_max":312.03125,"ha":375,"o":"m 312 172 q 164 -122 249 59 q 62 -132 109 -122 l 213 182 l 312 172 "},"d":{"x_min":8,"x_max":651.109375,"ha":660,"o":"m 651 44 l 633 0 q 434 0 542 4 q 439 86 439 29 l 439 86 q 364 22 413 52 q 273 -8 311 -8 q 75 122 153 -8 q 8 358 8 233 q 124 598 8 533 q 224 647 159 618 q 324 682 303 682 q 433 633 371 682 q 436 774 433 680 q 439 915 439 868 q 412 989 439 968 q 339 1007 392 1005 l 334 1032 l 563 1049 l 550 38 l 651 44 m 431 372 q 404 534 431 466 q 290 632 368 632 q 178 544 224 632 q 141 400 141 470 q 185 190 141 287 q 341 67 241 67 q 417 203 393 67 q 431 372 431 284 "},"¨":{"x_min":-15,"x_max":439.203125,"ha":424,"o":"m 439 929 q 410 837 428 866 q 330 825 401 825 l 230 825 l 269 929 q 350 929 325 929 q 439 929 375 929 m 193 929 l 148 825 l -15 825 q 12 874 8 865 q 33 929 28 905 q 105 929 78 929 q 193 929 129 929 "},"Ô":{"x_min":62,"x_max":1112,"ha":1174,"o":"m 784 1114 l 712 1055 l 605 1180 l 409 1051 l 371 1108 q 618 1306 475 1179 q 698 1207 648 1262 q 784 1114 741 1161 m 1112 566 q 1075 278 1112 376 q 882 74 1025 145 q 710 13 820 44 q 530 -17 593 -17 q 190 112 318 -17 q 62 456 62 242 q 228 894 62 759 q 691 1015 380 1015 q 992 877 867 1015 q 1112 566 1112 744 m 970 505 q 857 801 970 648 q 603 965 738 965 q 321 797 446 965 q 204 470 204 640 q 320 186 204 317 q 591 50 439 50 q 877 191 771 50 q 970 505 970 317 "},"E":{"x_min":8,"x_max":601.109375,"ha":628,"o":"m 601 91 l 503 -8 q 298 4 388 4 q 8 -8 183 4 q 51 596 51 311 q 49 802 51 766 q 23 1007 44 922 q 296 990 248 990 q 562 1015 439 990 l 569 985 l 485 925 q 334 932 421 932 q 205 927 319 932 l 197 558 l 402 558 q 591 583 516 558 l 596 569 l 508 465 q 385 473 463 473 l 189 473 q 169 67 185 337 l 359 67 q 588 111 528 67 l 601 91 "},"Y":{"x_min":19,"x_max":1103.796875,"ha":1095,"o":"m 1103 1015 q 637 452 898 683 q 626 188 626 283 q 637 -4 626 82 q 481 -4 544 4 q 487 278 487 77 q 481 432 487 379 q 19 993 205 722 q 180 1056 128 1025 q 594 526 300 855 q 980 1006 826 711 q 1103 1015 1057 1006 "},"\"":{"x_min":26,"x_max":312,"ha":338,"o":"m 312 732 l 220 732 l 220 1007 l 312 1007 l 312 732 m 118 732 l 26 732 l 26 1007 l 118 1007 l 118 732 "},"‹":{"x_min":8,"x_max":372.609375,"ha":381,"o":"m 372 585 l 117 358 q 230 219 173 288 q 348 87 296 136 l 283 36 q 148 198 233 102 q 8 358 21 343 l 309 628 l 372 585 "},"˙":{"x_min":47,"x_max":255.359375,"ha":303,"o":"m 255 920 l 210 817 l 47 817 q 76 867 70 857 q 95 920 91 896 q 167 920 140 920 q 255 920 191 920 "},"ê":{"x_min":-6,"x_max":509.3125,"ha":560,"o":"m 432 815 l 360 757 l 253 882 l 57 752 l 20 809 q 267 1007 123 880 q 346 908 295 963 q 432 815 389 862 m 509 469 q 128 304 356 397 q 192 159 141 223 q 327 85 252 85 q 466 155 381 85 l 489 136 q 274 -8 355 -8 q 59 122 137 -8 q -6 377 -6 232 q 77 577 -6 479 q 263 682 164 682 q 421 615 339 682 q 509 469 507 544 m 367 468 q 307 558 367 511 q 203 606 248 606 q 138 521 163 606 q 119 405 119 455 q 121 347 119 384 q 250 398 185 373 q 367 468 367 448 "},"Ï":{"x_min":-68,"x_max":386.203125,"ha":317,"o":"m 386 1228 q 357 1139 375 1167 q 277 1127 348 1127 l 177 1127 l 216 1228 q 297 1228 270 1228 q 386 1228 322 1228 m 140 1228 l 95 1127 l -68 1127 q -40 1175 -45 1166 q -19 1228 -24 1205 q 52 1228 23 1228 q 140 1228 76 1228 m 248 1015 q 230 647 245 937 q 219 277 219 419 q 230 8 219 132 l 72 -8 q 81 495 72 162 q 94 998 92 835 l 248 1015 "},"„":{"x_min":16,"x_max":393.796875,"ha":410,"o":"m 393 132 q 293 -124 322 -2 q 193 -143 247 -124 l 299 123 q 393 132 347 123 m 216 132 q 116 -124 145 -2 q 16 -143 70 -124 l 121 123 q 216 132 170 123 "},"Â":{"x_min":-26,"x_max":1160.203125,"ha":1133,"o":"m 836 1114 l 764 1055 l 657 1180 l 461 1051 l 424 1108 q 671 1306 528 1179 q 750 1207 699 1262 q 836 1114 793 1161 m 1160 18 q 1014 -8 1069 15 l 767 493 q 603 474 724 474 q 558 474 594 474 q 499 474 522 474 q 367 439 387 474 l 108 0 l -26 0 q 285 494 49 144 q 576 998 493 801 q 699 1007 650 998 q 832 670 732 859 q 1015 348 924 509 q 1160 18 1121 157 m 754 534 l 610 852 q 428 532 428 577 q 524 514 428 514 q 754 534 686 514 "},"Í":{"x_min":43.28125,"x_max":295.796875,"ha":339,"o":"m 295 1226 l 88 1045 l 43 1097 q 226 1306 159 1219 l 295 1226 m 237 1015 q 220 647 234 937 q 208 277 208 419 q 219 8 208 132 l 61 -8 q 72 495 61 162 q 83 998 83 835 l 237 1015 "},"´":{"x_min":11,"x_max":263.921875,"ha":275,"o":"m 263 927 l 56 747 l 11 798 q 194 1007 127 921 l 263 927 "},"ì":{"x_min":29,"x_max":333,"ha":361,"o":"m 281 798 l 236 747 l 29 927 l 98 1007 q 281 798 165 920 m 333 30 q 143 -8 172 -8 q 120 36 120 -8 q 128 312 120 128 q 136 588 136 497 q 109 620 136 615 q 62 622 102 622 l 73 662 q 272 682 140 666 q 258 391 270 651 q 251 100 251 213 q 267 56 251 56 q 333 68 277 56 l 333 30 "},"±":{"x_min":31,"x_max":733.828125,"ha":765,"o":"m 733 389 l 432 389 l 432 161 l 332 161 l 332 389 l 31 389 l 31 489 l 332 489 l 332 717 l 432 717 l 432 489 l 733 489 l 733 389 m 733 0 l 31 0 l 31 101 l 733 101 l 733 0 "},"Ú":{"x_min":51,"x_max":1116.359375,"ha":1167,"o":"m 720 1226 l 513 1045 l 467 1097 q 651 1306 584 1219 l 720 1226 m 1116 984 q 1041 575 1078 780 q 881 173 980 311 q 534 -8 751 -8 q 213 176 328 -8 q 87 579 126 318 q 51 974 77 644 l 209 1015 q 231 636 220 824 q 338 257 257 388 q 648 85 442 85 q 762 130 734 85 q 971 1007 876 314 l 1116 984 "},"|":{"x_min":75,"x_max":175,"ha":251,"o":"m 175 -8 l 75 -8 l 75 1064 l 175 1064 l 175 -8 "},"§":{"x_min":19,"x_max":747,"ha":767,"o":"m 747 347 q 712 229 747 287 q 638 126 674 177 q 654 41 654 80 q 515 -182 654 -77 q 260 -278 384 -278 q 19 -229 107 -278 l 153 -134 q 354 -185 255 -185 q 481 -153 441 -185 q 521 -36 521 -122 q 406 113 521 49 q 197 221 302 167 q 83 403 83 295 q 221 642 83 523 q 201 787 201 702 q 295 953 201 885 q 484 1015 381 1015 q 714 941 614 1015 l 616 858 q 413 957 503 957 q 334 827 334 957 q 441 622 334 698 q 639 512 541 568 q 747 347 747 447 m 664 263 q 575 387 664 325 q 397 488 561 397 q 262 595 288 548 q 175 493 175 561 q 261 356 175 422 q 440 255 312 318 q 597 166 562 195 q 664 263 664 209 "},"Ý":{"x_min":-66,"x_max":1018.8125,"ha":951,"o":"m 613 1226 l 406 1045 l 360 1097 q 543 1306 477 1219 l 613 1226 m 1018 1015 q 552 452 813 683 q 541 188 541 283 q 552 -4 541 82 q 396 -4 459 4 q 402 277 402 77 q 396 432 402 379 q -66 993 120 722 q 95 1055 43 1025 q 509 526 215 855 q 895 1006 741 711 q 1018 1015 972 1006 "},"b":{"x_min":9,"x_max":655,"ha":665,"o":"m 655 425 q 563 122 655 240 q 284 -8 463 -8 q 130 101 184 -8 q 87 296 87 189 q 95 645 87 412 q 103 994 103 879 l 9 1010 l 9 1035 l 227 1054 l 213 584 q 449 682 367 682 q 603 598 545 682 q 655 425 655 525 m 522 388 q 481 533 522 472 q 355 606 435 606 q 235 501 274 606 q 208 332 208 426 q 252 158 208 229 q 405 77 306 77 q 487 214 446 77 q 522 388 522 331 "},"q":{"x_min":57,"x_max":600,"ha":658,"o":"m 600 683 q 572 -246 575 422 q 459 -276 550 -251 l 437 -269 l 455 76 q 380 25 418 51 q 300 -8 327 -8 q 194 43 261 -8 q 109 129 136 89 q 57 374 57 210 q 151 594 57 505 q 379 683 245 683 q 495 626 436 683 l 600 683 m 464 248 l 464 407 q 444 555 464 514 q 316 615 413 615 q 207 566 237 615 q 182 442 182 527 q 220 223 182 321 q 377 93 273 93 q 454 144 436 93 q 464 248 464 173 "},"Ω":{"x_min":41,"x_max":969,"ha":1011,"o":"m 969 566 q 868 320 969 416 q 624 207 779 236 l 624 125 l 794 125 q 890 152 864 125 q 917 244 912 177 l 949 244 l 949 0 l 571 0 l 571 250 q 746 362 683 272 q 805 566 805 447 q 725 799 805 710 q 505 888 646 888 q 284 798 364 888 q 205 566 205 708 q 261 362 205 444 q 438 250 322 273 l 438 0 l 60 0 l 60 244 l 92 244 q 120 150 96 176 q 214 125 145 125 l 385 125 l 385 207 q 140 320 231 234 q 41 566 41 416 q 186 850 41 749 q 505 938 314 938 q 823 850 695 938 q 969 566 969 749 "},"Ö":{"x_min":16,"x_max":1066,"ha":1082,"o":"m 768 1228 q 739 1139 757 1167 q 660 1127 731 1127 l 560 1127 l 599 1228 q 679 1228 653 1228 q 768 1228 704 1228 m 522 1228 l 478 1127 l 314 1127 q 342 1175 336 1166 q 363 1228 357 1205 q 435 1228 406 1228 q 522 1228 459 1228 m 1066 566 q 1028 278 1066 376 q 836 74 978 145 q 663 13 772 44 q 484 -17 547 -17 q 143 112 271 -17 q 16 456 16 242 q 181 894 16 759 q 645 1015 332 1015 q 945 877 820 1015 q 1066 566 1066 744 m 924 505 q 810 801 924 648 q 557 965 690 965 q 274 797 400 965 q 158 470 158 640 q 273 186 158 317 q 545 50 393 50 q 829 191 725 50 q 924 505 924 317 "},"z":{"x_min":27,"x_max":536.765625,"ha":564,"o":"m 536 661 q 360 368 372 389 q 203 64 263 199 q 306 59 308 59 q 503 81 422 59 l 514 70 l 465 -8 q 265 6 378 6 q 38 -8 150 6 l 27 8 l 353 585 q 274 587 328 585 q 192 589 220 589 q 61 570 131 589 l 50 579 l 106 674 q 536 661 343 651 "},"™":{"x_min":71,"x_max":1261,"ha":1332,"o":"m 1261 429 l 1161 429 l 1161 898 l 1157 898 l 978 429 l 908 429 l 729 898 l 725 898 l 725 429 l 625 429 l 625 1007 l 780 1007 l 944 581 l 1105 1007 l 1261 1007 l 1261 429 m 527 924 l 349 924 l 349 429 l 249 429 l 249 924 l 71 924 l 71 1007 l 527 1007 l 527 924 "},"ã":{"x_min":37,"x_max":598,"ha":636,"o":"m 557 921 q 506 836 532 878 q 431 784 471 784 q 333 818 414 784 q 228 852 252 852 q 153 793 182 852 l 99 822 q 150 905 102 823 q 227 960 182 960 q 343 926 263 960 q 439 892 423 892 q 507 947 475 892 l 557 921 m 598 14 l 557 14 q 404 0 506 15 l 407 108 l 405 108 q 245 -8 320 -8 q 98 55 159 -8 q 37 204 37 118 q 111 362 37 295 q 277 430 185 430 q 404 388 323 430 l 404 480 q 378 591 404 554 q 281 648 352 627 q 228 590 262 640 q 112 577 152 590 q 191 652 135 622 q 298 682 246 682 q 494 619 449 682 q 529 411 529 570 l 529 50 q 598 38 562 47 l 598 14 m 404 219 q 376 332 404 286 q 280 388 342 388 q 188 335 220 388 q 162 226 162 290 q 200 121 162 171 q 295 67 241 67 q 373 123 340 67 q 404 219 404 172 "},"æ":{"x_min":-8,"x_max":857.34375,"ha":849,"o":"m 857 469 q 476 304 704 397 q 540 158 489 223 q 675 85 600 85 q 817 161 749 85 l 844 138 q 611 -8 715 -8 q 482 43 547 -8 q 393 150 425 87 q 200 -8 282 -8 q 53 55 114 -8 q -8 204 -8 118 q 65 361 -8 294 q 232 429 139 429 q 359 388 278 429 l 359 480 q 332 591 359 554 q 236 649 306 628 q 183 590 199 612 q 67 577 107 590 q 145 652 90 622 q 253 682 200 682 q 460 604 410 682 q 611 682 561 682 q 767 615 690 682 q 857 469 844 548 m 715 468 q 655 558 715 511 q 551 606 596 606 q 486 521 512 606 q 467 405 467 455 q 469 347 467 384 q 598 398 535 373 q 715 468 715 448 m 359 219 q 331 331 359 285 q 235 387 296 387 q 143 334 175 387 q 117 226 117 290 q 154 121 117 170 q 250 67 196 67 q 328 123 293 67 q 359 219 359 172 "},"®":{"x_min":21,"x_max":1035,"ha":1054,"o":"m 1035 504 q 886 142 1035 293 q 528 -8 737 -8 q 168 142 316 -8 q 21 504 21 293 q 168 865 21 715 q 528 1015 316 1015 q 886 865 737 1015 q 1035 504 1035 715 m 935 504 q 815 802 935 673 q 528 932 696 932 q 240 802 359 932 q 121 504 121 673 q 239 206 121 335 q 528 77 358 77 q 815 206 696 77 q 935 504 935 335 m 775 206 l 677 206 l 521 460 l 424 460 l 424 206 l 334 206 l 334 795 l 558 795 q 763 625 763 795 q 612 464 763 483 l 775 206 m 671 632 q 542 719 671 719 l 424 719 l 424 536 l 527 536 q 626 549 597 536 q 671 632 671 570 "},"É":{"x_min":8,"x_max":601.109375,"ha":628,"o":"m 431 1226 l 224 1045 l 179 1097 q 362 1306 295 1219 l 431 1226 m 601 91 l 503 -8 q 298 4 388 4 q 8 -8 183 4 q 51 596 51 311 q 49 802 51 766 q 23 1007 44 922 q 296 990 246 990 q 562 1015 438 990 l 569 985 l 485 925 q 334 932 421 932 q 205 927 317 932 l 197 559 l 402 559 q 591 583 516 559 l 596 569 l 508 465 q 384 474 463 474 l 189 474 q 169 67 185 337 l 359 67 q 588 111 528 67 l 601 91 "},"~":{"x_min":51,"x_max":692.71875,"ha":745,"o":"m 692 373 q 520 254 617 254 q 368 302 464 254 q 216 351 271 351 q 101 247 146 351 l 51 330 q 219 451 113 451 q 380 404 278 451 q 514 358 481 358 q 642 457 587 358 l 692 373 "},"³":{"x_min":18,"x_max":394,"ha":413,"o":"m 394 551 q 342 450 394 504 q 258 371 301 411 q 206 363 249 363 q 18 448 101 363 l 83 513 q 232 430 142 430 q 286 466 267 430 q 302 532 302 495 q 245 621 302 597 q 131 635 210 635 q 268 825 184 703 l 38 825 l 95 900 q 195 892 124 892 q 291 896 227 892 q 386 900 355 900 q 234 701 362 855 q 345 657 297 701 q 394 551 394 612 "},"¡":{"x_min":86,"x_max":258.234375,"ha":343,"o":"m 258 682 l 252 557 l 133 533 l 144 655 l 258 682 m 236 -285 l 86 -317 q 127 437 118 -76 l 234 462 q 219 -19 219 55 q 236 -285 219 -182 "},"[":{"x_min":16,"x_max":293.796875,"ha":310,"o":"m 293 1028 l 278 947 l 203 948 q 127 944 192 948 q 116 491 116 576 l 116 256 q 124 -61 116 122 q 201 -57 150 -61 q 279 -54 253 -54 l 256 -133 q 134 -127 195 -130 q 16 -139 54 -126 l 16 1020 q 50 1015 49 1015 q 293 1028 124 1015 "},"L":{"x_min":-9,"x_max":668.828125,"ha":658,"o":"m 668 129 q 607 -8 627 52 q 384 3 509 3 q 186 -1 309 3 q -9 -8 36 -6 q 26 615 26 304 q 11 1015 26 748 l 189 1040 l 162 67 l 295 67 q 657 137 542 67 l 668 129 "}," ":{"x_min":0,"x_max":0,"ha":381},"∑":{"x_min":21.296875,"x_max":889.125,"ha":908,"o":"m 889 28 q 861 -108 875 -40 q 808 -240 840 -195 q 690 -300 764 -300 l 21 -300 l 561 318 l 40 1033 l 679 1033 q 805 987 769 1033 q 839 872 834 952 q 850 714 844 793 l 789 714 q 668 914 744 861 q 436 968 591 968 l 252 968 l 690 369 l 212 -178 l 472 -178 q 691 -144 623 -178 q 826 28 778 -101 l 889 28 "},"%":{"x_min":11,"x_max":1117,"ha":1128,"o":"m 1117 354 q 1064 115 1117 220 q 878 -17 997 -17 q 794 24 847 -17 q 726 92 746 62 q 681 291 681 163 q 918 625 681 625 q 1075 537 1022 625 q 1117 354 1117 466 m 802 938 q 406 -25 626 573 l 312 -25 q 709 938 523 458 l 802 938 m 447 657 q 392 418 447 525 q 208 286 326 286 q 124 327 177 286 q 56 395 76 365 q 11 594 11 466 q 248 929 11 929 q 405 841 352 929 q 447 657 447 769 m 1025 294 q 904 591 1025 529 q 803 465 828 529 q 781 301 781 409 q 812 134 781 216 q 926 25 854 26 q 1000 150 969 55 q 1025 294 1025 230 m 355 597 q 234 894 355 832 q 133 768 158 832 q 111 604 111 712 q 142 437 111 519 q 256 327 184 329 q 330 452 299 358 q 355 597 355 533 "},"P":{"x_min":0,"x_max":689,"ha":689,"o":"m 689 774 q 550 526 689 638 q 277 419 418 420 l 237 461 q 452 527 369 463 q 547 726 547 600 q 434 898 547 833 q 228 957 343 952 q 197 375 197 836 q 197 139 197 273 q 197 -8 197 4 q 54 -33 127 -13 q 61 376 54 3 q 63 784 66 623 l 61 973 l 0 973 l 0 1006 q 190 1012 41 1008 q 382 1015 309 1015 q 591 959 508 1015 q 689 774 689 894 "},"∏":{"x_min":3,"x_max":1068,"ha":1071,"o":"m 1068 -300 l 701 -300 l 701 -244 l 818 -244 l 818 977 l 253 977 l 253 -244 l 370 -244 l 370 -300 l 3 -300 l 3 -244 l 125 -244 l 125 977 l 3 977 l 3 1033 l 1068 1033 l 1068 977 l 946 977 l 946 -244 l 1068 -244 l 1068 -300 "},"À":{"x_min":-26,"x_max":1160.203125,"ha":1133,"o":"m 729 1097 l 684 1045 l 476 1226 l 546 1306 q 729 1097 612 1219 m 1160 18 q 1014 -8 1069 15 l 767 493 q 603 474 724 474 q 558 474 594 474 q 499 474 522 474 q 367 439 387 474 l 108 0 l -26 0 q 285 494 49 144 q 576 998 493 801 q 699 1007 650 998 q 832 670 732 859 q 1015 348 924 509 q 1160 18 1121 157 m 754 534 l 610 852 q 428 532 428 577 q 524 514 428 514 q 754 534 686 514 "},"_":{"x_min":-34,"x_max":660.5,"ha":625,"o":"m 660 -175 l -34 -175 l -34 -106 l 660 -106 l 660 -175 "},"ñ":{"x_min":39,"x_max":723.78125,"ha":761,"o":"m 619 921 q 568 836 593 878 q 493 784 532 784 q 393 818 475 784 q 290 852 312 852 q 215 793 244 852 l 161 822 q 211 905 162 823 q 289 960 243 960 q 404 926 325 960 q 501 892 483 892 q 569 947 536 892 l 619 921 m 723 46 l 694 0 l 483 0 q 541 407 541 277 q 375 581 541 581 q 247 218 247 581 q 250 96 247 167 q 253 17 253 26 q 111 -8 172 12 q 136 414 136 144 q 132 608 136 565 l 39 648 l 39 669 q 262 682 148 669 q 258 562 258 573 q 473 682 363 682 q 619 616 565 682 q 674 455 674 550 q 653 248 674 370 q 618 41 636 144 q 723 46 669 41 "},"+":{"x_min":28,"x_max":730.828125,"ha":758,"o":"m 730 304 l 429 304 l 429 0 l 329 0 l 329 304 l 28 304 l 28 405 l 329 405 l 329 710 l 429 710 l 429 405 l 730 405 l 730 304 "},"‚":{"x_min":53,"x_max":253.015625,"ha":306,"o":"m 253 132 q 153 -124 182 -2 q 53 -143 107 -124 l 158 123 q 253 132 207 123 "},"½":{"x_min":26,"x_max":996.90625,"ha":1024,"o":"m 996 -8 q 802 0 814 0 q 704 -4 769 0 q 609 -8 639 -8 l 602 5 q 709 130 627 46 q 827 259 801 225 q 821 262 824 259 q 766 250 794 250 q 670 299 706 250 q 638 406 638 344 q 685 517 638 476 q 804 558 733 558 q 927 523 875 558 q 984 415 984 483 q 895 219 984 339 q 752 50 877 196 q 831 48 791 48 q 996 62 920 48 l 996 -8 m 850 974 l 245 -42 l 156 -42 l 762 974 l 850 974 m 301 922 q 284 562 284 698 q 290 386 284 468 q 184 362 221 375 q 195 563 195 520 l 195 809 q 26 736 109 761 l 42 808 q 271 929 171 833 l 301 922 m 901 415 q 817 508 901 508 q 730 397 730 508 q 798 292 730 292 q 870 332 839 292 q 901 415 901 372 "},"Æ":{"x_min":-34,"x_max":1392.5,"ha":1357,"o":"m 1392 125 l 1303 -8 q 1010 8 1124 8 q 782 -8 886 8 q 796 104 796 57 q 774 293 796 176 q 736 479 754 386 l 393 473 q 103 -8 250 262 l -34 14 q 300 502 49 144 q 627 998 514 807 q 1336 1032 1277 998 l 1346 1023 l 1248 936 l 807 927 l 874 564 l 1078 564 q 1289 591 1170 564 l 1217 486 l 884 472 l 948 80 q 1092 66 1099 66 q 1382 131 1268 66 l 1392 125 m 720 567 q 700 738 720 620 q 671 905 685 822 l 668 905 l 446 544 l 514 544 q 720 567 720 544 "},"Ë":{"x_min":8,"x_max":601.109375,"ha":628,"o":"m 510 1228 q 481 1139 499 1167 q 402 1127 473 1127 l 302 1127 l 341 1228 q 421 1228 396 1228 q 510 1228 446 1228 m 264 1228 l 220 1127 l 56 1127 q 84 1175 78 1166 q 105 1228 99 1205 q 177 1228 149 1228 q 264 1228 201 1228 m 601 91 l 503 -8 q 298 4 388 4 q 8 -8 183 4 q 51 596 51 311 q 49 802 51 766 q 23 1007 44 922 q 296 990 246 990 q 562 1015 438 990 l 569 985 l 485 925 q 334 932 421 932 q 205 927 317 932 l 197 559 l 402 559 q 591 583 516 559 l 596 569 l 508 465 q 384 474 463 474 l 189 474 q 169 67 185 337 l 359 67 q 588 111 528 67 l 601 91 "},"'":{"x_min":56,"x_max":148,"ha":204,"o":"m 148 732 l 56 732 l 56 1007 l 148 1007 l 148 732 "},"Š":{"x_min":-14,"x_max":598.546875,"ha":586,"o":"m 529 1250 q 281 1051 409 1166 q 202 1150 255 1094 q 116 1244 117 1243 l 188 1301 l 295 1176 l 491 1306 l 529 1250 m 598 959 l 501 898 q 320 957 397 957 q 201 896 251 957 q 151 765 151 836 q 260 597 151 656 q 463 505 362 551 q 572 324 572 441 q 430 85 572 194 q 163 -17 298 -17 q -14 35 76 -17 l 95 120 q 250 66 163 66 q 439 246 439 66 q 326 416 439 356 q 115 512 220 463 q 1 709 1 580 q 139 930 1 829 q 392 1024 267 1024 q 598 959 487 1024 "},"ª":{"x_min":41,"x_max":415,"ha":457,"o":"m 415 514 l 289 508 l 289 572 l 289 572 q 174 500 250 500 q 80 536 119 500 q 41 628 41 573 q 91 726 41 686 q 196 763 136 763 q 286 738 259 763 q 293 801 293 756 q 270 867 293 840 q 209 894 247 894 q 172 859 200 894 q 99 866 121 859 q 153 911 109 891 q 224 929 194 929 q 357 892 329 929 q 378 758 378 865 l 378 533 l 415 533 l 415 514 m 289 633 q 269 706 289 675 q 210 738 250 738 q 153 707 173 738 q 133 637 133 676 q 157 573 133 605 q 213 542 182 542 q 264 573 240 542 q 289 633 289 604 "},"Œ":{"x_min":12,"x_max":1371.828125,"ha":1383,"o":"m 1371 94 l 1274 -8 q 999 3 1099 3 q 800 -8 885 3 l 819 95 q 673 17 721 38 q 514 -17 589 -17 q 148 128 285 -17 q 12 504 12 274 q 146 875 12 722 q 505 1032 288 1032 q 712 1015 574 1032 q 920 999 849 999 q 1359 1024 1141 999 l 1364 1012 l 1273 926 q 963 941 1177 941 l 963 568 l 1178 568 q 1360 587 1280 568 l 1278 467 l 963 473 l 963 75 q 1129 66 1052 66 q 1359 113 1299 66 l 1371 94 m 830 505 l 830 695 q 755 896 830 828 q 549 965 681 965 q 272 816 383 965 q 170 510 170 680 q 268 209 170 339 q 543 66 377 66 q 791 206 729 66 q 830 505 830 292 "},"˛":{"x_min":7,"x_max":276.46875,"ha":283,"o":"m 276 -259 q 147 -300 213 -300 q 49 -265 91 -300 q 7 -176 7 -230 q 136 -8 7 -90 q 166 10 163 10 l 223 10 q 115 -156 115 -92 q 172 -233 115 -233 q 251 -209 218 -233 l 276 -259 "},"ð":{"x_min":16,"x_max":590,"ha":607,"o":"m 590 369 q 501 118 590 236 q 271 -8 403 -8 q 81 103 154 -8 q 16 322 16 200 q 113 573 16 464 q 349 682 211 682 q 397 678 372 682 q 346 757 379 696 q 281 838 316 812 l 134 765 l 81 824 l 225 891 l 91 981 l 161 1032 l 318 927 l 486 1007 l 539 959 l 375 883 q 535 649 478 793 q 590 369 590 514 m 457 316 q 426 505 457 427 q 285 614 381 614 q 181 518 220 614 q 149 368 149 443 q 344 66 149 108 q 436 173 411 108 q 457 316 457 227 "},"T":{"x_min":0,"x_max":872.296875,"ha":879,"o":"m 872 1019 q 823 933 857 983 q 519 926 601 922 l 519 -8 q 361 0 480 0 q 372 360 372 90 q 363 926 372 662 q 181 930 224 928 q 0 949 77 935 l 47 1024 q 448 990 79 990 q 869 1024 744 990 l 872 1019 "},"š":{"x_min":43,"x_max":499.984375,"ha":542,"o":"m 499 951 q 251 752 378 868 q 171 851 223 795 q 85 946 86 944 l 157 1003 l 265 877 l 462 1007 l 499 951 m 490 590 l 397 505 q 223 597 305 597 q 178 579 196 597 q 160 534 160 562 q 240 419 160 469 q 390 336 315 377 q 472 191 472 277 q 394 47 472 107 q 235 -8 323 -8 q 43 59 126 -8 l 147 148 q 292 67 231 67 q 372 135 372 67 q 297 232 372 193 q 158 305 159 304 q 85 462 85 362 q 146 613 85 545 q 293 682 208 682 q 490 590 402 682 "},"Þ":{"x_min":35,"x_max":668,"ha":703,"o":"m 668 657 q 532 404 668 518 q 259 295 401 297 l 216 337 q 424 395 336 337 q 526 577 526 463 q 417 775 526 705 q 190 833 326 833 q 178 -8 178 529 l 35 -33 q 40 325 36 44 q 45 683 45 545 q 39 1006 45 859 l 214 1015 q 196 883 201 949 q 362 891 278 891 q 569 837 486 891 q 668 657 668 773 "},"j":{"x_min":50,"x_max":338.921875,"ha":390,"o":"m 338 929 q 276 824 331 824 l 158 824 q 188 929 177 864 q 268 925 276 925 q 338 929 256 925 m 309 682 l 296 142 q 255 -125 291 -45 q 50 -278 204 -239 l 50 -241 q 127 -177 108 -215 q 176 190 166 -104 q 178 572 178 261 q 148 620 178 620 q 88 605 137 620 l 111 654 q 309 682 216 663 "},"1":{"x_min":121,"x_max":521,"ha":642,"o":"m 521 908 q 495 325 495 445 q 509 29 495 159 q 371 -8 425 12 q 385 608 385 304 l 385 754 q 121 636 241 668 l 145 724 q 495 922 334 759 l 495 917 l 521 908 "},"›":{"x_min":5.859375,"x_max":371.296875,"ha":378,"o":"m 371 358 q 96 36 276 254 l 31 87 q 150 219 83 135 q 261 357 205 288 l 5 584 l 69 628 l 371 358 "},"ı":{"x_min":16,"x_max":287,"ha":304,"o":"m 287 30 q 97 -8 128 -8 q 74 36 74 -8 q 82 309 74 128 q 90 583 90 491 q 63 615 90 609 q 16 616 56 616 l 27 655 q 225 675 93 659 q 213 387 225 645 q 205 98 205 212 q 221 56 205 56 q 287 68 231 56 l 287 30 "},"ä":{"x_min":37,"x_max":598,"ha":636,"o":"m 555 929 q 525 840 545 868 q 446 828 517 828 l 346 828 l 385 929 q 466 929 441 929 q 555 929 491 929 m 309 929 l 264 828 l 100 828 q 130 876 124 867 q 149 929 145 906 q 221 929 193 929 q 309 929 245 929 m 598 14 l 557 14 q 404 0 506 15 l 407 108 l 405 108 q 245 -8 320 -8 q 98 55 159 -8 q 37 204 37 118 q 111 362 37 295 q 277 430 185 430 q 404 388 323 430 l 404 480 q 378 591 404 554 q 281 648 352 627 q 228 590 262 640 q 112 577 152 590 q 191 652 135 622 q 298 682 246 682 q 494 619 449 682 q 529 411 529 570 l 529 50 q 598 38 562 47 l 598 14 m 404 219 q 376 332 404 286 q 280 388 342 388 q 188 335 220 388 q 162 226 162 290 q 200 121 162 171 q 295 67 241 67 q 373 123 340 67 q 404 219 404 172 "},"<":{"x_min":36,"x_max":738.84375,"ha":776,"o":"m 738 -11 l 36 306 l 36 402 l 738 720 l 738 615 l 164 355 l 738 94 l 738 -11 "},"£":{"x_min":-37,"x_max":799.171875,"ha":761,"o":"m 799 94 q 706 40 788 88 q 618 0 639 0 q 509 3 610 0 q 339 6 408 6 q 85 -21 125 6 l 67 -8 q 142 226 121 31 q 158 494 150 361 q 88 500 114 500 q -32 475 0 500 l -37 480 q 7 567 -25 493 q 158 567 58 567 q 214 841 158 751 q 332 952 247 894 q 478 1015 422 1015 q 617 981 540 1015 q 745 916 647 969 l 643 807 q 529 888 558 870 q 399 932 457 932 q 317 851 344 932 q 293 690 297 793 q 290 567 292 629 q 546 576 496 567 q 414 480 504 480 q 354 484 393 480 q 283 491 301 490 q 231 77 276 221 l 528 77 q 789 119 679 77 l 799 94 "},"¹":{"x_min":69,"x_max":344.015625,"ha":414,"o":"m 344 922 q 327 562 327 698 q 333 386 327 468 q 227 363 264 375 q 238 564 238 521 l 238 809 q 69 736 152 761 l 85 808 q 314 929 214 833 l 344 922 "},"t":{"x_min":14,"x_max":373.75,"ha":388,"o":"m 373 675 l 341 602 q 233 597 293 597 q 227 222 227 316 q 228 147 227 156 q 254 79 232 102 l 345 122 l 345 80 l 168 -17 q 102 251 102 95 q 107 365 102 287 q 113 487 113 442 l 113 597 l 14 597 l 61 665 l 113 665 l 118 886 l 248 932 l 232 665 q 373 675 330 665 "},"¬":{"x_min":37,"x_max":740,"ha":778,"o":"m 740 150 l 640 150 l 640 446 l 37 446 l 37 547 l 740 547 l 740 150 "},"ù":{"x_min":31,"x_max":629.65625,"ha":661,"o":"m 441 798 l 396 747 l 189 927 l 258 1007 q 441 798 326 920 m 629 676 q 615 338 621 539 q 607 0 611 169 l 479 0 l 485 113 l 479 113 q 357 -8 437 44 q 145 107 207 -6 q 99 361 99 193 q 103 503 99 412 q 108 626 108 594 q 31 627 90 630 l 58 676 q 240 676 153 670 q 220 292 220 469 q 268 161 220 216 q 391 101 316 101 q 497 453 497 101 q 489 676 497 481 q 629 676 564 671 "},"W":{"x_min":17,"x_max":1562.953125,"ha":1581,"o":"m 1562 998 q 1360 495 1461 747 q 1217 21 1204 98 l 1053 -17 q 910 335 1025 88 q 783 688 805 559 l 780 688 q 625 333 755 588 q 493 8 504 96 l 343 -8 q 17 962 250 438 l 155 1015 q 455 118 339 660 l 458 118 q 557 355 482 205 q 675 600 657 556 q 733 832 733 737 l 861 858 q 1003 484 900 727 q 1146 112 1108 236 l 1149 112 q 1300 561 1190 275 q 1456 1007 1415 868 l 1562 998 "},"ï":{"x_min":-46,"x_max":408.203125,"ha":361,"o":"m 408 929 q 379 840 397 868 q 299 828 370 828 l 199 828 l 238 929 q 319 929 294 929 q 408 929 344 929 m 162 929 l 117 828 l -46 828 q -18 876 -23 867 q 2 929 -2 906 q 74 929 47 929 q 162 929 98 929 m 323 30 q 133 -8 162 -8 q 110 36 110 -8 q 118 312 110 128 q 126 588 126 497 q 99 620 126 615 q 51 622 92 622 l 62 662 q 260 682 129 666 q 247 391 259 651 q 241 100 241 213 q 257 56 241 56 q 323 68 267 56 l 323 30 "},">":{"x_min":23,"x_max":725.84375,"ha":750,"o":"m 725 306 l 23 -11 l 23 94 l 597 355 l 23 615 l 23 721 l 725 402 l 725 306 "},"v":{"x_min":19,"x_max":719.046875,"ha":738,"o":"m 719 638 q 541 336 625 505 q 439 16 428 112 l 341 -8 q 185 327 263 159 q 19 657 95 520 q 167 682 98 659 q 271 427 196 588 q 380 175 352 254 q 635 682 471 391 l 719 638 "},"û":{"x_min":31,"x_max":629.65625,"ha":661,"o":"m 549 815 l 476 757 l 369 882 l 174 752 l 136 809 q 383 1007 240 880 q 464 908 412 963 q 549 815 507 862 m 629 676 q 615 338 621 539 q 607 0 611 169 l 479 0 l 485 113 l 479 113 q 357 -8 437 44 q 145 107 207 -6 q 99 361 99 193 q 103 503 99 412 q 108 626 108 594 q 31 627 90 630 l 58 676 q 240 676 153 670 q 220 292 220 469 q 268 161 220 216 q 391 101 316 101 q 497 453 497 101 q 489 676 497 481 q 629 676 564 671 "},"Ò":{"x_min":16,"x_max":1066,"ha":1083,"o":"m 631 1097 l 585 1045 l 378 1226 l 447 1306 q 631 1097 514 1219 m 1066 566 q 1029 278 1066 376 q 836 74 979 145 q 664 13 774 44 q 484 -17 547 -17 q 143 112 271 -17 q 16 456 16 242 q 182 894 16 759 q 645 1015 334 1015 q 943 879 821 1015 q 1066 566 1066 744 m 924 505 q 811 801 924 648 q 557 965 692 965 q 275 797 400 965 q 158 470 158 640 q 274 186 158 317 q 545 50 393 50 q 831 191 725 50 q 924 505 924 317 "},"&":{"x_min":-9,"x_max":545.203125,"ha":533,"o":"m 545 86 q 475 0 491 45 q 384 93 442 29 q 316 33 350 62 q 242 -8 266 -8 q 86 42 171 -8 q -9 162 -9 98 q 35 319 -9 247 q 146 444 66 368 q 76 651 76 568 q 142 773 76 704 q 259 842 209 842 q 350 789 303 842 q 397 691 397 737 q 346 573 397 636 q 253 482 320 540 q 413 230 296 383 q 452 297 441 263 q 521 293 485 286 q 453 180 504 245 q 545 86 484 150 m 297 677 q 287 736 297 709 q 249 775 274 775 q 199 733 217 775 q 184 665 184 700 q 224 523 184 595 q 297 677 297 608 m 347 142 q 168 394 285 217 q 91 253 91 321 q 152 142 91 186 q 278 102 209 102 q 347 142 318 102 "},"˝":{"x_min":-28,"x_max":463.703125,"ha":435,"o":"m 463 918 l 256 739 l 210 789 q 394 997 331 917 l 463 918 m 224 918 l 17 740 l -28 790 q 156 997 93 918 l 224 918 "},"Ð":{"x_min":6,"x_max":943,"ha":950,"o":"m 943 627 q 648 121 943 284 q 40 -8 415 -8 l 40 33 l 119 33 q 126 206 126 98 l 126 532 q 6 522 59 529 l 11 569 l 6 618 q 126 608 72 608 l 126 774 q 121 951 126 777 q 27 951 88 956 l 27 997 q 247 1007 154 1007 q 680 936 494 1007 q 943 627 943 837 m 785 565 q 615 854 785 744 q 280 951 468 951 l 272 608 q 450 618 356 609 q 450 522 444 562 q 267 532 372 530 l 255 50 q 620 205 462 58 q 785 565 785 359 "},"I":{"x_min":71,"x_max":247.390625,"ha":317,"o":"m 247 1015 q 229 647 244 937 q 218 277 218 419 q 229 8 218 132 l 71 -8 q 80 495 71 162 q 93 998 91 835 l 247 1015 "},"ˉ":{"x_min":-9,"x_max":427.140625,"ha":417,"o":"m 427 931 q 406 875 409 882 q 366 838 389 842 q 193 828 304 828 q -9 841 28 828 l 27 931 q 135 925 45 931 q 242 921 200 921 q 335 925 277 921 q 427 931 403 931 "},"G":{"x_min":-8,"x_max":1025.421875,"ha":1017,"o":"m 1025 565 q 912 172 1026 508 q 778 -208 844 -17 l 665 -236 l 654 -231 l 769 116 q 598 32 657 54 q 414 -8 500 -8 q 103 154 223 -8 q -8 498 -8 301 q 212 876 -8 720 q 644 1015 411 1015 q 935 904 792 1015 l 810 805 q 500 932 673 932 q 229 802 326 932 q 142 504 142 686 q 247 215 142 346 q 514 77 360 77 q 799 219 701 77 q 880 537 880 341 l 1025 565 "},"`":{"x_min":22.640625,"x_max":274.796875,"ha":296,"o":"m 274 798 l 228 747 l 22 927 l 91 1006 q 274 798 158 920 "},"·":{"x_min":61,"x_max":244,"ha":306,"o":"m 244 387 q 216 321 244 349 q 152 294 189 294 q 88 321 115 294 q 61 387 61 349 q 88 451 61 424 q 152 479 115 479 q 216 451 189 479 q 244 387 244 424 "},"r":{"x_min":21,"x_max":465.484375,"ha":446,"o":"m 465 641 l 418 543 q 340 581 372 581 q 225 201 225 581 q 227 85 225 150 q 230 8 228 47 q 97 -8 184 7 q 112 380 112 269 q 110 486 112 416 q 109 593 109 557 q 21 640 109 620 l 27 661 l 244 665 q 238 529 238 595 l 238 529 q 288 629 253 586 q 384 682 332 682 q 465 641 433 682 "},"¿":{"x_min":49,"x_max":290.6875,"ha":340,"o":"m 215 682 l 208 555 l 91 530 l 99 656 l 215 682 m 290 -226 l 150 -333 q 49 -120 49 -238 q 102 57 49 -60 q 155 241 155 176 q 60 394 155 287 l 147 476 q 255 270 255 369 q 202 96 255 212 q 149 -70 149 -19 q 194 -166 149 -127 q 290 -226 215 -185 "},"ý":{"x_min":11,"x_max":706.890625,"ha":717,"o":"m 512 927 l 305 747 l 259 798 q 442 1007 376 920 l 512 927 m 706 651 q 523 251 644 535 q 333 -144 411 -8 q 247 -239 294 -210 q 127 -269 201 -269 q 11 -248 62 -269 l 49 -195 q 120 -219 97 -219 q 234 -102 172 -219 q 311 61 272 -20 q 36 656 158 374 l 161 683 q 372 187 229 476 q 581 683 442 352 l 706 651 "},"x":{"x_min":-23,"x_max":640.9375,"ha":617,"o":"m 640 47 l 522 -8 l 315 276 q 82 -8 165 102 l -23 16 q 257 341 70 125 q 25 633 153 479 l 163 683 q 338 436 254 542 l 528 683 l 617 634 l 389 372 q 640 47 540 182 "},"è":{"x_min":-6,"x_max":509.3125,"ha":560,"o":"m 325 798 l 280 747 l 73 927 l 142 1007 q 325 798 209 920 m 509 469 q 128 304 356 397 q 192 159 141 223 q 327 85 252 85 q 466 155 381 85 l 489 136 q 274 -8 355 -8 q 59 122 137 -8 q -6 377 -6 232 q 77 577 -6 479 q 263 682 164 682 q 421 615 339 682 q 509 469 507 544 m 367 468 q 307 558 367 511 q 203 606 248 606 q 138 521 163 606 q 119 405 119 455 q 121 347 119 384 q 250 398 185 373 q 367 468 367 448 "},"º":{"x_min":51,"x_max":433,"ha":485,"o":"m 433 736 q 369 574 433 649 q 220 500 305 500 q 92 569 139 500 q 51 713 51 630 q 118 868 51 808 q 280 929 185 929 q 395 866 353 929 q 433 736 433 812 m 341 688 q 320 809 341 759 q 230 878 292 878 q 162 816 187 878 q 143 720 143 769 q 173 609 143 661 q 264 550 209 550 q 321 605 298 550 q 341 688 341 652 "},"Ø":{"x_min":27,"x_max":1077,"ha":1104,"o":"m 1077 566 q 1040 279 1077 375 q 847 74 990 145 q 484 -14 670 -14 q 371 -1 422 -14 l 299 -149 l 196 -149 q 292 23 231 -96 q 27 456 27 134 q 195 894 27 759 q 656 1015 345 1015 q 772 996 720 1015 l 815 1092 l 909 1092 q 842 966 890 1064 q 1014 799 952 907 q 1077 566 1077 691 m 935 505 q 785 845 935 712 l 413 87 q 556 50 484 50 q 842 191 736 50 q 935 505 935 318 m 722 894 q 648 935 697 910 q 569 965 588 965 q 451 924 537 965 q 169 470 169 791 q 217 283 169 374 q 346 131 266 192 l 722 894 "},"∞":{"x_min":43,"x_max":885,"ha":928,"o":"m 885 416 q 837 239 885 310 q 683 158 783 158 q 477 331 555 158 q 259 158 387 158 q 99 238 162 158 q 43 413 43 313 q 91 588 43 516 q 245 672 147 672 q 451 500 370 672 q 669 672 537 672 q 829 591 766 672 q 885 416 885 517 m 852 420 q 811 542 852 493 q 698 591 771 591 q 501 376 597 591 q 689 247 568 247 q 807 296 762 247 q 852 420 852 345 m 428 454 q 240 583 354 583 q 122 533 166 583 q 78 409 78 483 q 115 291 78 338 q 225 239 155 239 q 353 315 294 239 q 428 454 382 355 "},"μ":{"x_min":21,"x_max":619.671875,"ha":640,"o":"m 619 676 q 605 338 609 539 q 597 0 601 169 l 469 0 l 475 113 l 469 113 q 348 -8 426 44 q 205 33 270 -6 q 222 -280 205 -173 q 82 -286 175 -281 q 97 169 96 -99 q 99 626 97 398 q 21 627 58 632 l 48 676 q 230 676 141 670 q 210 292 210 469 q 257 161 210 216 q 381 101 307 101 q 486 453 486 101 q 479 676 486 481 q 619 676 553 671 "},"÷":{"x_min":16,"x_max":718.828125,"ha":735,"o":"m 459 634 q 432 568 459 596 q 367 541 406 541 q 303 568 330 541 q 276 634 276 596 q 303 698 276 671 q 367 726 330 726 q 431 698 404 726 q 459 634 459 671 m 718 304 l 16 304 l 16 405 l 718 405 l 718 304 m 459 76 q 432 10 459 38 q 367 -17 406 -17 q 303 10 330 -17 q 276 76 276 38 q 303 140 276 113 q 367 168 330 168 q 431 140 404 168 q 459 76 459 113 "},"h":{"x_min":13,"x_max":670,"ha":683,"o":"m 670 0 q 456 -17 535 0 q 500 174 478 78 q 526 370 526 294 q 489 511 526 447 q 372 589 445 589 q 217 200 217 589 q 219 80 217 147 q 222 8 222 14 l 89 -8 q 107 539 107 273 l 107 928 q 80 986 107 971 q 13 999 65 994 l 13 1024 q 239 1058 150 1033 q 232 890 232 960 l 232 552 q 457 682 379 682 q 611 581 553 682 q 659 397 659 498 q 635 216 659 327 q 594 38 615 127 l 670 44 l 670 0 "},".":{"x_min":33,"x_max":208,"ha":242,"o":"m 208 93 l 94 -8 l 33 126 l 153 244 l 208 93 "},";":{"x_min":65,"x_max":290.015625,"ha":354,"o":"m 290 394 q 255 251 262 302 q 140 243 178 251 q 174 385 165 323 q 290 394 253 385 m 252 172 q 152 -119 195 39 l 65 -140 q 145 158 91 -55 l 252 172 "},"f":{"x_min":14,"x_max":419.59375,"ha":396,"o":"m 419 1039 l 362 940 q 269 982 307 982 q 218 899 236 982 q 206 790 206 842 l 206 665 l 368 665 l 336 597 l 205 597 q 194 222 194 223 q 206 4 194 101 q 72 -8 114 4 q 86 255 86 86 l 85 597 l 14 597 l 47 665 l 85 665 q 98 836 97 829 q 175 984 116 934 q 247 1035 203 1009 q 329 1067 302 1067 q 419 1039 373 1067 "},"“":{"x_min":0,"x_max":377.8125,"ha":379,"o":"m 377 1007 l 272 740 q 177 732 223 740 q 277 988 248 866 q 377 1007 323 988 m 200 1007 l 94 740 q 0 732 45 740 q 100 988 70 866 q 200 1007 145 988 "},"A":{"x_min":-26,"x_max":1160.203125,"ha":1133,"o":"m 1160 18 q 1014 -8 1069 15 l 767 493 q 603 474 724 474 q 558 474 594 474 q 499 474 522 474 q 367 439 387 474 l 108 0 l -26 0 q 285 494 49 144 q 576 998 493 801 q 699 1007 650 998 q 832 670 732 859 q 1015 348 924 509 q 1160 18 1121 157 m 754 534 l 610 852 q 428 532 428 577 q 524 514 428 514 q 754 534 686 514 "},"6":{"x_min":33,"x_max":608,"ha":642,"o":"m 608 376 q 534 123 608 244 q 321 -17 448 -17 q 112 91 196 -17 q 33 319 33 191 q 131 632 33 470 q 327 908 230 769 l 473 924 q 283 637 358 779 q 366 659 324 648 q 449 674 417 674 q 563 550 510 674 q 608 376 608 445 m 483 323 q 388 593 483 488 q 364 613 369 613 q 263 601 292 613 q 185 480 219 581 q 158 334 158 395 q 292 56 158 145 q 341 33 327 33 q 445 153 399 33 q 483 323 483 253 "},"‘":{"x_min":26,"x_max":226.015625,"ha":253,"o":"m 226 1007 l 120 740 q 26 732 71 740 q 126 988 95 866 q 226 1007 171 988 "},"π":{"x_min":55,"x_max":762,"ha":817,"o":"m 762 651 q 631 515 762 515 q 592 515 612 515 q 587 292 587 396 l 587 207 q 589 110 587 130 q 641 46 599 46 q 721 210 713 46 l 756 210 l 756 203 q 608 -14 756 -14 q 459 282 459 -14 q 464 418 459 339 q 471 523 470 516 q 295 527 424 523 q 285 219 295 290 q 152 -14 257 -14 q 66 52 88 -14 q 55 172 55 90 l 88 172 q 139 100 91 100 q 238 286 214 100 q 248 527 243 340 l 217 527 q 96 452 111 527 l 64 452 q 343 631 71 631 q 499 623 398 631 q 638 615 600 615 q 730 656 737 615 l 762 656 l 762 651 "},"O":{"x_min":62,"x_max":1112,"ha":1174,"o":"m 1112 566 q 1075 278 1112 376 q 882 74 1025 145 q 710 13 820 44 q 530 -17 593 -17 q 190 112 318 -17 q 62 456 62 242 q 228 894 62 759 q 691 1015 380 1015 q 992 877 867 1015 q 1112 566 1112 744 m 970 505 q 857 801 970 648 q 603 965 738 965 q 321 797 446 965 q 204 470 204 640 q 320 186 204 317 q 591 50 439 50 q 877 191 771 50 q 970 505 970 317 "},"n":{"x_min":39,"x_max":723.78125,"ha":761,"o":"m 723 46 l 694 0 l 483 0 q 541 407 541 277 q 375 581 541 581 q 247 218 247 581 q 250 96 247 167 q 253 17 253 26 q 111 -8 172 12 q 136 414 136 144 q 132 608 136 565 l 39 648 l 39 669 q 262 682 148 669 q 258 562 258 573 q 473 682 363 682 q 619 616 565 682 q 674 455 674 550 q 653 248 674 370 q 618 41 636 144 q 723 46 669 41 "},"3":{"x_min":35,"x_max":607,"ha":642,"o":"m 607 290 q 529 127 607 220 q 395 -4 495 88 q 311 -17 383 -17 q 35 133 158 -17 q 137 219 94 176 q 377 76 219 76 q 461 142 432 76 q 482 255 482 192 q 416 391 482 345 q 268 429 361 429 q 215 429 243 429 q 425 749 300 526 l 68 749 l 150 866 q 308 850 215 850 q 585 875 411 850 l 594 866 q 478 695 550 791 q 350 530 414 612 q 530 465 458 530 q 607 290 607 395 "},"9":{"x_min":33,"x_max":608,"ha":642,"o":"m 608 602 q 506 293 608 492 q 335 9 431 145 q 177 -22 263 1 l 167 -12 q 389 304 313 137 q 263 276 274 276 q 95 376 164 276 q 33 566 33 465 q 159 833 33 745 q 456 908 267 908 q 571 783 526 908 q 608 602 608 684 m 483 606 q 451 758 483 677 q 346 858 409 858 q 203 777 255 858 q 158 610 158 706 q 273 348 158 429 q 320 326 305 326 q 416 354 364 326 q 483 606 483 511 "},"l":{"x_min":1,"x_max":291.296875,"ha":293,"o":"m 291 88 q 105 -17 187 35 q 66 35 76 13 q 57 99 57 58 q 69 460 57 220 q 82 820 82 699 q 83 863 82 835 q 85 902 85 891 q 69 959 85 942 q 1 981 51 981 l 1 1006 l 212 1040 q 182 172 182 563 q 222 97 182 97 q 287 120 245 97 l 291 88 "},"¤":{"x_min":36,"x_max":737.078125,"ha":772,"o":"m 737 737 l 660 662 q 731 450 731 580 q 661 240 731 326 l 736 161 l 674 98 l 597 179 q 386 103 514 103 q 174 178 259 103 l 99 97 l 36 161 l 112 241 q 42 450 42 329 q 115 660 42 582 l 37 740 l 99 806 l 179 726 q 386 799 261 799 q 591 726 511 799 l 670 806 l 737 737 m 631 450 q 558 625 631 552 q 386 698 486 698 q 213 625 285 698 q 142 450 142 552 q 213 276 142 349 q 386 203 285 203 q 558 276 486 203 q 631 450 631 349 "},"":{"x_min":14,"x_max":646,"ha":660,"o":"m 611 919 q 548 815 604 815 l 439 815 q 469 919 457 854 q 540 915 530 915 q 611 919 529 915 m 646 30 q 456 -8 485 -8 q 433 36 433 -8 q 438 313 433 143 q 447 591 445 534 l 206 591 q 196 219 196 223 q 204 4 196 101 q 72 -8 114 4 q 86 244 86 84 l 85 591 l 14 591 l 47 658 l 85 658 q 98 827 97 820 q 175 975 116 925 q 247 1025 203 1000 q 329 1056 301 1056 q 419 1029 372 1056 l 362 930 q 269 973 307 973 q 218 892 236 973 q 205 782 205 835 l 206 658 l 394 658 q 584 675 418 658 q 572 386 583 645 q 564 98 564 212 q 580 56 564 75 l 646 68 l 646 30 "},"∂":{"x_min":54,"x_max":573,"ha":628,"o":"m 573 509 q 507 177 573 327 q 264 -18 423 -18 q 103 63 160 -18 q 54 243 54 134 q 124 439 54 351 q 300 528 194 528 q 464 398 420 528 q 481 604 481 461 q 393 836 481 836 q 323 787 370 836 q 246 739 277 739 q 195 783 195 739 q 244 858 195 830 q 337 882 285 882 q 525 751 463 882 q 573 509 573 652 m 441 311 q 323 485 441 485 q 187 369 231 485 q 157 178 157 287 q 273 13 157 13 q 406 124 360 13 q 441 311 441 207 "},"4":{"x_min":40,"x_max":601.15625,"ha":642,"o":"m 601 185 l 516 185 l 516 15 q 391 -17 474 6 l 391 185 l 274 185 q 40 190 232 185 q 223 516 131 353 q 388 851 327 705 q 521 892 465 869 q 516 429 514 518 l 516 277 l 601 277 l 601 185 m 405 738 l 402 738 l 152 277 l 391 277 l 405 738 "},"p":{"x_min":36,"x_max":629,"ha":665,"o":"m 629 415 q 605 250 629 334 q 526 104 576 146 q 429 37 491 75 q 324 -8 354 -8 q 220 61 295 -8 q 206 -249 209 -81 q 77 -269 151 -255 q 112 415 112 -2 q 104 600 112 545 l 36 615 l 36 641 q 231 670 145 648 l 228 568 l 230 565 q 419 682 333 682 q 579 595 520 682 q 629 415 629 522 m 504 395 q 462 531 504 474 q 340 597 416 597 q 258 522 287 597 q 237 405 237 467 l 237 274 q 265 138 237 184 q 376 58 295 88 q 504 395 504 154 "},"‡":{"x_min":-1,"x_max":667.109375,"ha":664,"o":"m 667 754 q 632 668 647 725 q 557 658 600 659 q 480 658 528 657 q 407 662 418 662 l 396 383 q 662 394 590 383 q 629 302 647 370 q 554 294 596 295 q 474 296 525 293 q 398 301 418 301 q 396 204 398 282 q 396 105 394 143 q 403 8 397 50 l 258 -8 q 258 301 251 119 l 151 301 q -1 280 50 303 q 48 383 33 330 l 264 383 l 272 662 l 158 662 q 1 641 69 664 q 49 743 42 694 l 268 743 q 268 1002 272 858 l 414 1015 q 410 743 414 858 q 667 754 604 743 "},"à":{"x_min":37,"x_max":598,"ha":636,"o":"m 417 798 l 372 747 l 164 927 l 234 1007 q 417 798 300 920 m 598 14 l 557 14 q 404 0 506 15 l 407 108 l 405 108 q 245 -8 320 -8 q 98 55 159 -8 q 37 204 37 118 q 111 362 37 295 q 277 430 185 430 q 404 388 323 430 l 404 480 q 378 591 404 554 q 281 648 352 627 q 228 590 262 640 q 112 577 152 590 q 191 652 135 622 q 298 682 246 682 q 494 619 449 682 q 529 411 529 570 l 529 50 q 598 38 562 47 l 598 14 m 404 219 q 376 332 404 286 q 280 388 342 388 q 188 335 220 388 q 162 226 162 290 q 200 121 162 171 q 295 67 241 67 q 373 123 340 67 q 404 219 404 172 "},"Ü":{"x_min":5,"x_max":1070.359375,"ha":1076,"o":"m 753 1228 q 724 1139 743 1167 q 645 1127 716 1127 l 545 1127 l 584 1228 q 664 1228 639 1228 q 753 1228 689 1228 m 507 1228 l 463 1127 l 299 1127 q 328 1175 323 1166 q 348 1228 343 1205 q 420 1228 392 1228 q 507 1228 443 1228 m 1070 984 q 993 575 1032 780 q 835 173 934 311 q 488 -8 705 -8 q 167 176 282 -8 q 41 579 78 318 q 5 974 31 644 l 163 1015 q 185 636 174 824 q 291 257 211 388 q 602 85 396 85 q 716 130 688 85 q 925 1007 830 314 l 1070 984 "},"ó":{"x_min":34,"x_max":608,"ha":643,"o":"m 468 927 l 261 747 l 216 798 q 399 1007 332 920 l 468 927 m 608 369 q 517 116 608 232 q 284 -8 420 -8 q 100 107 175 -8 q 34 322 34 209 q 133 575 34 469 q 380 682 232 682 q 556 577 495 682 q 608 369 608 491 m 475 312 q 444 502 475 425 q 303 614 399 614 q 194 505 232 614 q 167 341 167 426 q 217 165 167 250 q 363 67 275 67 q 413 110 380 67 q 452 169 442 147 q 475 312 475 219 "},"√":{"x_min":-61,"x_max":783.5,"ha":724,"o":"m 783 1061 l 704 1061 l 301 -27 l 257 -28 l 40 570 l -44 539 l -61 594 l 130 660 l 303 180 l 653 1126 l 783 1126 l 783 1061 "}}}
